<?xml version="1.0" encoding="iso-8859-1"?>
<!-- Generator: Adobe Illustrator 19.0.0, SVG Export Plug-In . SVG Version: 6.00 Build 0)  -->
<svg xmlns="http://www.w3.org/2000/svg" xmlns:xlink="http://www.w3.org/1999/xlink" version="1.1" id="Layer_1" x="0px" y="0px" viewBox="0 0 436.62 436.62" style="enable-background:new 0 0 436.62 436.62;" xml:space="preserve" width="512" height="512">
<g>
	<path style="fill:#2BA5F7;" d="M282.15,15.373c-18.88-9.7-40.25-15.22-62.89-15.37c-23.24-0.16-45.25,5.46-64.67,15.5   c-45.14,23.31-76.28,70.49-76.28,124.5c0,42.02,18.51,79.71,47.83,105.37c21.68,18.99,39.01,42.32,51.38,68.21h0.01h14.83h17.12   l9.83,7.87l7.84-7.87h17.16l6.25,5.87l8.31-5.87l0.26,0.13c12.74-26.31,30.74-49.83,52.65-69.49   c28.56-25.63,46.53-62.82,46.53-104.22v-0.01C358.31,85.673,327.37,38.583,282.15,15.373z"/>
	<g>
		<polygon style="fill:#B27214;" points="203.08,392.433 194.09,392.873 191.79,345.993 191.33,336.723 200.32,336.283     200.8,345.993   "/>
		<polygon style="fill:#B27214;" points="245.33,336.723 244.87,345.993 242.57,392.873 233.58,392.433 235.86,345.993     236.34,336.283   "/>
		<polygon style="fill:#B27214;" points="222.83,336.493 222.83,392.663 213.83,392.663 213.83,336.503   "/>
	</g>
	<path style="fill:#995C0D;" d="M251.333,388.163v19.514c0,15.979-12.964,28.943-28.943,28.943h-8.119   c-15.979,0-28.943-12.964-28.943-28.943v-19.514h33.009H251.333z"/>
	<path style="fill:#7C4101;" d="M204.661,407.677v-19.514h-19.333v19.514c0,15.979,12.964,28.943,28.943,28.943h8.119   c1.919,0,3.792-0.191,5.607-0.548C214.7,433.458,204.661,421.738,204.661,407.677z"/>
	<path style="fill:#198CBF;" d="M192.36,313.583l-4.865,3.435l-9.965-3.435h-0.01c-12.37-25.89-29.7-49.22-51.38-68.21   c-29.32-25.66-47.83-63.35-47.83-105.37h50.95c0,42.02,11.77,79.71,30.42,105.38C173.48,264.373,184.5,287.693,192.36,313.583z"/>
	<path style="fill:#198CBF;" d="M154.59,15.503c3.57,4.04,7.51,7.73,11.79,11.02c-22.43,25.51-37.12,66.96-37.12,113.48H78.31   C78.31,85.993,109.45,38.813,154.59,15.503z"/>
	<path style="fill:#F7B239;" d="M248.62,140.003h58.74c0,41.39-11.43,78.59-29.59,104.22c-13.91,19.63-25.35,43.1-33.46,69.36   l-8.25,7.62l-8.91-7.62c2.77-26.26,6.67-49.73,11.4-69.36C244.73,218.593,248.62,181.393,248.62,140.003z"/>
	<path style="fill:#F7B239;" d="M307.36,140.003h-58.74c0-38.42-3.36-73.24-8.78-98.54c5.63-1.465,7.359-12.98,12.47-15.51   c5.111-2.53,13.605,3.925,18.07,0.46C292.78,51.833,307.36,93.243,307.36,140.003z"/>
	<path style="fill:#F7B239;" d="M209.48,313.583l-8.17,7.12l-8.95-7.12c-7.86-25.89-18.88-49.21-32.68-68.2   c-18.65-25.67-30.42-63.36-30.42-105.38H188c0,42.02,4.01,79.71,10.35,105.38C203.05,264.373,206.8,287.693,209.48,313.583z"/>
	<path style="fill:#F7B239;" d="M196.84,41.473c-5.45,25.35-8.84,60.22-8.84,98.53h-58.74c0-46.52,14.69-87.97,37.12-113.48   c4.46,3.445,18.82-3.095,23.917-0.583C195.395,28.453,191.23,40.018,196.84,41.473z"/>
	<path style="fill:#F95428;" d="M282.15,15.373c-3.56,4.04-7.5,7.74-11.77,11.04c-8.93,6.93-19.28,12.12-30.54,15.05   c-6.88,1.8-14.09,2.75-21.53,2.75c-7.42,0-14.61-0.95-21.47-2.74c-11.22-2.91-21.54-8.06-30.46-14.95   c-4.28-3.29-8.22-6.98-11.79-11.02c19.42-10.04,41.43-15.66,64.67-15.5C241.9,0.153,263.27,5.673,282.15,15.373z"/>
	<path style="fill:#E54728;" d="M166.38,26.523c0.166,0.128,0.341,0.245,0.507,0.372c16.229-6.487,33.91-10.019,52.373-9.892   c17.854,0.118,34.912,3.588,50.588,9.802c0.175-0.134,0.358-0.257,0.532-0.392c4.27-3.3,8.21-7,11.77-11.04   c-18.88-9.7-40.25-15.22-62.89-15.37c-23.24-0.16-45.25,5.46-64.67,15.5C158.16,19.543,162.1,23.233,166.38,26.523z"/>
	<path style="fill:#F95428;" d="M358.31,147.503h-280c-4.143,0-7.5-3.358-7.5-7.5s3.357-7.5,7.5-7.5h280c4.143,0,7.5,3.358,7.5,7.5   S362.453,147.503,358.31,147.503z"/>
	<path style="fill:#E54728;" d="M160.31,140.003c0-4.142,3.357-7.5,7.5-7.5h-89.5c-4.143,0-7.5,3.358-7.5,7.5s3.357,7.5,7.5,7.5   h89.5C163.667,147.503,160.31,144.145,160.31,140.003z"/>
	<polygon style="fill:#995C0D;" points="200.32,336.283 200.8,345.993 191.79,345.993 191.33,336.723  "/>
	<polygon style="fill:#995C0D;" points="213.83,336.503 222.83,336.493 222.83,345.993 213.83,345.993  "/>
	<polygon style="fill:#995C0D;" points="245.33,336.723 244.87,345.993 235.86,345.993 236.34,336.283  "/>
	<path style="fill:#F95428;" d="M258.87,313.583l0.26,0.13c-3.72,7.65-6.98,15.54-9.77,23.63l-1.26,3.65h-29.79h-29.8l-1.26-3.66   c-2.79-8.11-6.04-16.05-9.72-23.75h14.83h17.12h17.67h17.16H258.87z"/>
</g>















</svg>
