<?xml version="1.0" encoding="UTF-8" standalone="no"?>
<!-- Generator: Adobe Illustrator 19.0.0, SVG Export Plug-In . SVG Version: 6.00 Build 0)  -->

<svg
   xmlns:osb="http://www.openswatchbook.org/uri/2009/osb"
   xmlns:dc="http://purl.org/dc/elements/1.1/"
   xmlns:cc="http://creativecommons.org/ns#"
   xmlns:rdf="http://www.w3.org/1999/02/22-rdf-syntax-ns#"
   xmlns:svg="http://www.w3.org/2000/svg"
   xmlns="http://www.w3.org/2000/svg"
   xmlns:xlink="http://www.w3.org/1999/xlink"
   xmlns:sodipodi="http://sodipodi.sourceforge.net/DTD/sodipodi-0.dtd"
   xmlns:inkscape="http://www.inkscape.org/namespaces/inkscape"
   version="1.1"
   id="Layer_1"
   x="0px"
   y="0px"
   viewBox="0 0 500.32 500.32"
   style="enable-background:new 0 0 500.32 500.32;"
   xml:space="preserve"
   inkscape:version="0.91 r13725"
   sodipodi:docname="bear.svg"><metadata
     id="metadata129"><rdf:RDF><cc:Work
         rdf:about=""><dc:format>image/svg+xml</dc:format><dc:type
           rdf:resource="http://purl.org/dc/dcmitype/StillImage" /><dc:title></dc:title></cc:Work></rdf:RDF></metadata><defs
     id="defs127"><linearGradient
       id="linearGradient4257"
       osb:paint="solid"><stop
         style="stop-color:#c5142c;stop-opacity:1;"
         offset="0"
         id="stop4259" /></linearGradient><linearGradient
       inkscape:collect="always"
       xlink:href="#linearGradient4257"
       id="linearGradient4261"
       x1="106.78834"
       y1="204.1627"
       x2="324.40389"
       y2="204.1627"
       gradientUnits="userSpaceOnUse" /></defs><sodipodi:namedview
     pagecolor="#ffffff"
     bordercolor="#666666"
     borderopacity="1"
     objecttolerance="10"
     gridtolerance="10"
     guidetolerance="10"
     inkscape:pageopacity="0"
     inkscape:pageshadow="2"
     inkscape:window-width="1366"
     inkscape:window-height="744"
     id="namedview125"
     showgrid="false"
     inkscape:zoom="2.6683274"
     inkscape:cx="229.87429"
     inkscape:cy="138.5222"
     inkscape:window-x="0"
     inkscape:window-y="24"
     inkscape:window-maximized="1"
     inkscape:current-layer="Layer_1" /><path
     style="fill:#a1142c;fill-opacity:1"
     d="M293.251,178.72c-20.8-44-21.6-74.4-8-80.8s36.8,14.4,56.8,57.6c20.8,44,26.4,84,12.8,90.4  C341.251,252.32,313.251,221.92,293.251,178.72z"
     id="path3" /><ellipse
     transform="matrix(0.4796 -0.8775 0.8775 0.4796 147.5675 316.2507)"
     style="fill:#a1142c;fill-opacity:1"
     cx="340.409"
     cy="33.714"
     rx="21.6"
     ry="12"
     id="ellipse5" /><path
     style="fill:#a1142c;fill-opacity:1"
     d="M110.851,286.72c-6.4-41.6,12.8-32,32-34.4c18.4-2.4,37.6,20,44,61.6c6.4,41.6-4,78.4-22.4,80.8  C145.251,397.12,117.251,328.32,110.851,286.72z"
     id="path7" /><path
     style="fill:#a1142c;fill-opacity:1"
     d="M373.251,73.12c0,28.8-27.2,60-56,60s-78.4-19.2-78.4-47.2c0-28.8,45.6-64.8,73.6-64.8  S373.251,44.32,373.251,73.12z"
     id="path9" /><g
     id="g11"
     style="fill:#c5142c;fill-opacity:1"><path
       style="fill:#c5142c;fill-opacity:1"
       d="M312.451,21.12c28.8,0,60,23.2,60,52s-27.2,60-56,60"
       id="path13" /><path
       style="fill:#c5142c;fill-opacity:1"
       d="m 385.251,89.92 c 0,17.6 -36,41.6 -58.4,41.6 -22.4,0 -51.23553,-23.62523 -51.23553,-41.225233 0,-17.6 40.83553,-32.374767 63.23553,-32.374767 22.4,0 46.4,14.4 46.4,32 z"
       id="path15"
       inkscape:connector-curvature="0"
       sodipodi:nodetypes="sssss" /></g><path
     style="fill:#a1142c;fill-opacity:1"
     d="m 284.451,249.92 c -46.4,62.4 -96,86.4 -139.2,66.4 -58.4,-27.2 -66.961696,-82.4654 -19.7617,-144.8654 46.4,-62.4 113.70094,-91.473837 152.10094,-62.67384 37.6,28 53.26076,78.73924 6.86076,141.13924 z"
     id="path17"
     inkscape:connector-curvature="0"
     sodipodi:nodetypes="scccs" /><g
     id="g19"
     style="fill:url(#linearGradient4261);fill-opacity:1"><path
       style="fill:url(#linearGradient4261);fill-opacity:1"
       d="M300.451,199.52c-46.4,62.4-96,86.4-139.2,66.4c-32-15.2-42.4-45.6-37.6-81.6   c-25.6,53.6-24.8,109.6,21.6,131.2c43.2,20,92.8-4,139.2-66.4c21.6-28.8,34.4-60,38.4-88   C317.251,174.72,309.251,186.72,300.451,199.52z"
       id="path21" /><rect
       x="210.16595"
       y="97.7901"
       style="fill:url(#linearGradient4261);fill-opacity:1"
       width="71.885033"
       height="120.1299"
       id="rect23" /><path
       style="fill:url(#linearGradient4261);fill-opacity:1"
       d="M 300.7753,78.748968 C 339.1753,107.54897 330.851,187.52 284.451,249.92 c -46.4,62.4 -96,86.4 -139.2,66.4"
       id="path25"
       inkscape:connector-curvature="0"
       sodipodi:nodetypes="csc" /></g><path
     style="fill:#008b8b;fill-opacity:1"
     d="M284.451,225.92c-26.4,38.4-53.6,56-75.2,48.8c-29.6-10.4-19.2-56.8,7.2-95.2s51.2-42.4,70.4-29.6  C305.251,162.72,310.851,187.52,284.451,225.92z"
     id="path27" /><path
     style="fill:#a1142c;fill-opacity:1"
     d="M199.651,324.32c-42.4-13.6-62.4-40-54.4-62.4c7.2-22.4-57.6-90.4,80.8-18.4  c40,20.8,71.2,43.2,64,65.6S242.051,338.72,199.651,324.32z"
     id="path31" /><path
     style="fill:#c5142c;fill-opacity:1"
     d="M290.051,309.12c-7.2,22.4-57.6,27.2-100.8,13.6c-42.4-13.6-52.8-47.2-45.6-69.6"
     id="path33" /><path
     style="fill:#ffb819;fill-opacity:1"
     d="M194.851,381.92c-32.8,0-59.2,26.4-59.2,59.2s26.4,59.2,59.2,59.2s59.2-26.4,59.2-59.2  S227.651,381.92,194.851,381.92z M194.851,477.92c-20,0-36.8-16.8-36.8-36.8s16-36.8,36.8-36.8c20,0,36.8,16.8,36.8,36.8  S214.851,477.92,194.851,477.92z"
     id="path35" /><path
     style="fill:#c5142c;fill-opacity:1"
     d="M222.051,302.72c17.6-27.2,40.8-35.2,56.8-24.8c16,10.4,18.4,34.4,1.6,61.6  c-17.6,27.2-44,40.8-60,31.2C203.651,360.32,204.451,329.92,222.051,302.72z"
     id="path39" /><g
     id="g41"
     style="fill:#a1142c;fill-opacity:1"
     transform="translate(3.3728994,0.7495332)"><path
       style="fill:#a1142c;fill-opacity:1"
       d="m 221.251,50.72 c 44.8,17.6 69.82337,36.9514 64.22337,51.3514 -5.6,13.6 2.17663,44.6486 -83.42337,-0.9514 -42.4,-22.4 -76.8,-43.2 -71.2,-57.6 4.8,-13.6 45.6,-10.4 90.4,7.2 z"
       id="path43"
       inkscape:connector-curvature="0"
       sodipodi:nodetypes="scccs" /><ellipse
       transform="matrix(0.4799,-0.8773,0.8773,0.4799,144.0296,288.6258)"
       style="fill:#a1142c;fill-opacity:1"
       cx="315.45001"
       cy="22.834"
       rx="24.799"
       ry="14.4"
       id="ellipse45" /></g><circle
     style="fill:#ffffff;fill-opacity:1"
     cx="345.251"
     cy="64.32"
     r="6.4"
     id="circle49" /><circle
     style="fill:#a1142c;fill-opacity:1"
     cx="344.451"
     cy="61.92"
     r="3.2"
     id="circle51" /><path
     style="fill:#008b8b;fill-opacity:1"
     d="M394.051,81.92c0,7.2-6.4,16-13.6,16h-4c-7.2,0-13.6-8.8-13.6-16l0,0c0-7.2,6.4-16,13.6-16h4  C387.651,65.92,394.051,74.72,394.051,81.92L394.051,81.92z"
     id="path53" /><path
     style="fill:#ffb819;fill-opacity:1"
     d="M202.051,437.92c0,3.2-4.8,6.4-8,6.4l0,0c-3.2,0-8-3.2-8-6.4v-102.4c0-3.2,4.8-6.4,8-6.4l0,0  c3.2,0,8,3.2,8,6.4V437.92z"
     id="path57" /><path
     style="fill:#008b8b;fill-opacity:1"
     d="M215.651,322.72c0,8.8-11.2,16-25.6,16c-14.4,0-17.6-7.2-17.6-16s3.2-16,17.6-16  C204.451,307.52,215.651,313.92,215.651,322.72z"
     id="path63" /><g
     id="g67"
     style="fill:#a1142c;fill-opacity:1"
     transform="translate(5.621499,2.2485996)"><ellipse
       style="fill:#a1142c;fill-opacity:1"
       cx="131.651"
       cy="37.919998"
       rx="6.4000001"
       ry="3.2"
       id="ellipse69" /><ellipse
       style="fill:#a1142c;fill-opacity:1"
       cx="127.651"
       cy="47.52"
       rx="6.4000001"
       ry="3.2"
       id="ellipse71" /><ellipse
       style="fill:#a1142c;fill-opacity:1"
       cx="132.451"
       cy="57.119999"
       rx="6.4000001"
       ry="3.2"
       id="ellipse73" /></g><g
     id="g75"
     style="fill:#a1142c;fill-opacity:1"><ellipse
       transform="matrix(0.8788 -0.4771 0.4771 0.8788 -70.2373 202.1456)"
       style="fill:#a1142c;fill-opacity:1"
       cx="362.893"
       cy="239.365"
       rx="3.2"
       ry="6.4"
       id="ellipse77" /><ellipse
       transform="matrix(0.8789 -0.477 0.477 0.8789 -75.2119 199.6597)"
       style="fill:#a1142c;fill-opacity:1"
       cx="355.622"
       cy="247.959"
       rx="3.2"
       ry="6.4"
       id="ellipse79" /><ellipse
       transform="matrix(0.8789 -0.477 0.477 0.8789 -76.6781 194.7712)"
       style="fill:#a1142c;fill-opacity:1"
       cx="345.262"
       cy="248.403"
       rx="2.4"
       ry="7.2"
       id="ellipse81" /></g><ellipse
     style="fill:#a1142c;fill-opacity:1"
     cx="254.851"
     cy="297.92"
     rx="24.8"
     ry="31.2"
     id="ellipse89" /><g
     id="g95" /><g
     id="g97" /><g
     id="g99" /><g
     id="g101" /><g
     id="g103" /><g
     id="g105" /><g
     id="g107" /><g
     id="g109" /><g
     id="g111" /><g
     id="g113" /><g
     id="g115" /><g
     id="g117" /><g
     id="g119" /><g
     id="g121" /><g
     id="g123" /></svg>