<?xml version="1.0" encoding="UTF-8" standalone="no"?>
<!-- Generator: Adobe Illustrator 19.0.0, SVG Export Plug-In . SVG Version: 6.00 Build 0)  -->

<svg
   xmlns:dc="http://purl.org/dc/elements/1.1/"
   xmlns:cc="http://creativecommons.org/ns#"
   xmlns:rdf="http://www.w3.org/1999/02/22-rdf-syntax-ns#"
   xmlns:svg="http://www.w3.org/2000/svg"
   xmlns="http://www.w3.org/2000/svg"
   xmlns:sodipodi="http://sodipodi.sourceforge.net/DTD/sodipodi-0.dtd"
   xmlns:inkscape="http://www.inkscape.org/namespaces/inkscape"
   version="1.1"
   id="Layer_1"
   x="0px"
   y="0px"
   viewBox="0 0 512 512"
   style="enable-background:new 0 0 512 512;"
   xml:space="preserve"
   inkscape:version="0.91 r13725"
   sodipodi:docname="magic-wand.svg"><metadata
     id="metadata59"><rdf:RDF><cc:Work
         rdf:about=""><dc:format>image/svg+xml</dc:format><dc:type
           rdf:resource="http://purl.org/dc/dcmitype/StillImage" /></cc:Work></rdf:RDF></metadata><defs
     id="defs57" /><sodipodi:namedview
     pagecolor="#ffffff"
     bordercolor="#666666"
     borderopacity="1"
     objecttolerance="10"
     gridtolerance="10"
     guidetolerance="10"
     inkscape:pageopacity="0"
     inkscape:pageshadow="2"
     inkscape:window-width="1366"
     inkscape:window-height="744"
     id="namedview55"
     showgrid="false"
     inkscape:zoom="0.4609375"
     inkscape:cx="-120.40678"
     inkscape:cy="256"
     inkscape:window-x="0"
     inkscape:window-y="24"
     inkscape:window-maximized="1"
     inkscape:current-layer="Layer_1" /><circle
     style="fill:#c5142c;fill-opacity:1"
     cx="256"
     cy="256"
     r="256"
     id="circle3" /><path
     style="fill:#83142c;fill-opacity:1"
     d="M511.96,259.153L388.86,136.052l-46.216,47.495l-91.212-91.212L238.77,101l-2.827-2.827l-2.826,9.781  l92.917,92.665l-39.922,41.027l-88.936-89.598l-18.804,14.931l91.429,91.429l-1.414,1.452l-138.33-138.331l-4.622,6.966  l-4.515,0.829l139.119,139.119l-39.214,40.301L112.204,201.09l-9.282,7.67l109.066,109.066l-46.183,47.461l-34.833,25.01  l121.659,121.659c1.122,0.014,2.243,0.043,3.368,0.043C396.331,512,510.267,399.082,511.96,259.153z"
     id="path5" /><path
     style="fill:#FFEDB5;"
     d="M137.675,393.076c-2.426,0-4.853-0.926-6.704-2.777c-3.703-3.701-3.703-9.706,0-13.407  l160.908-160.908c3.699-3.703,9.707-3.703,13.407,0c3.703,3.701,3.703,9.706,0,13.407L144.377,390.299  C142.529,392.151,140.1,393.076,137.675,393.076z"
     id="path7" /><path
     style="fill:#FEE187;"
     d="M131.246,390.523c1.814,1.684,4.115,2.553,6.428,2.553c2.426,0,4.853-0.926,6.704-2.777  l160.908-160.908c3.618-3.617,3.675-9.414,0.224-13.133L131.246,390.523z"
     id="path9" /><path
     style="fill:#008b8b;fill-opacity:1"
     d="M389.68,144.329l-12.135,35.785c-1.062,3.131-0.515,6.584,1.462,9.235l22.599,30.282  c4.98,6.673,0.147,16.16-8.18,16.053l-37.783-0.483c-3.306-0.043-6.422,1.545-8.33,4.244l-21.818,30.851  c-4.808,6.797-15.324,5.132-17.794-2.819l-11.216-36.083c-0.981-3.156-3.453-5.63-6.611-6.611l-36.083-11.216  c-7.951-2.472-9.616-12.988-2.819-17.794l30.851-21.818c2.7-1.908,4.287-5.023,4.244-8.33l-0.483-37.783  c-0.107-8.325,9.38-13.159,16.053-8.18l30.282,22.599c2.65,1.977,6.103,2.524,9.235,1.462l35.785-12.135  C384.826,128.915,392.354,136.444,389.68,144.329z"
     id="path11" /><path
     style="fill:#ffffff;fill-opacity:1"
     d="M379.008,189.347c-1.977-2.65-2.524-6.103-1.462-9.235l12.135-35.785  c1.293-3.813,0.188-7.53-2.177-10.062l-93.272,93.272c1.014,1.088,1.8,2.395,2.255,3.856l11.216,36.083  c2.472,7.951,12.988,9.616,17.794,2.819l21.818-30.851c1.908-2.7,5.023-4.287,8.33-4.244l37.783,0.483  c8.325,0.107,13.159-9.38,8.18-16.053L379.008,189.347z"
     id="path13" /><g
     id="g15"><circle
       style="fill:#FFEDB5;"
       cx="241.778"
       cy="99.556"
       r="12.067"
       id="circle17" /><circle
       style="fill:#FFEDB5;"
       cx="187.044"
       cy="158.599"
       r="12.067"
       id="circle19" /><circle
       style="fill:#FFEDB5;"
       cx="125.845"
       cy="125.845"
       r="6.034"
       id="circle21" /><circle
       style="fill:#FFEDB5;"
       cx="107.744"
       cy="205.145"
       r="6.034"
       id="circle23" /></g><g
     id="g25" /><g
     id="g27" /><g
     id="g29" /><g
     id="g31" /><g
     id="g33" /><g
     id="g35" /><g
     id="g37" /><g
     id="g39" /><g
     id="g41" /><g
     id="g43" /><g
     id="g45" /><g
     id="g47" /><g
     id="g49" /><g
     id="g51" /><g
     id="g53" /></svg>