<?xml version="1.0" encoding="iso-8859-1"?>
<!-- Generator: Adobe Illustrator 19.0.0, SVG Export Plug-In . SVG Version: 6.00 Build 0)  -->
<svg version="1.1" id="Layer_1" xmlns="http://www.w3.org/2000/svg" xmlns:xlink="http://www.w3.org/1999/xlink" x="0px" y="0px"
	 viewBox="0 0 512 512" style="enable-background:new 0 0 512 512;" xml:space="preserve">
<rect x="441.379" y="44.138" style="fill:#EB443F;" width="8.828" height="70.621"/>
<path style="fill:#FFC83C;" d="M432.552,467.862c-79.78,0-149.242-40.781-185.379-105.931c-2.591-4.671,0-17.655,0-17.655
	c-4.414-26.115-26.483-56.767-26.483-88.276c0-117.009,94.854-211.862,211.862-211.862c7.317,0,14.547,0.371,21.672,1.095
	C412.948,16.73,362.921,0,308.966,0c-141.385,0-256,114.614-256,256c0,141.385,114.615,256,256,256
	c53.955,0,103.982-16.73,145.258-45.233C447.099,467.491,439.869,467.862,432.552,467.862z"/>
<path style="fill:#FFB432;" d="M154.88,256c0-123.767,87.831-227.015,204.563-250.827C343.105,1.896,326.269,0,308.966,0
	c-141.385,0-256,114.614-256,256c0,141.385,114.615,256,256,256c17.303,0,34.14-1.896,50.477-5.173
	C242.711,483.015,154.88,379.766,154.88,256z"/>
<path style="fill:#FFC83C;" d="M217.306,308.966h50.297c4.842,0,7.68-5.451,4.904-9.418l-55.201-78.858V308.966z"/>
<path style="fill:#FF5A4E;" d="M432.552,44.138c7.317,0,14.547,0.371,21.672,1.095C412.948,16.73,362.921,0,308.966,0
	c-87.889,0-165.411,44.306-211.51,111.786c47.234,31.061,140.889,55.938,140.889,55.938l1.86-0.532
	C273.799,94.558,347.266,44.138,432.552,44.138z"/>
<path style="fill:#EB443F;" d="M289.346,0.823c-3.455,0.263-6.894,0.577-10.31,0.975c-1.706,0.2-3.406,0.417-5.102,0.649
	c-3.38,0.462-6.735,1.001-10.072,1.594c-1.504,0.268-3.016,0.512-4.511,0.804c-4.515,0.888-8.995,1.873-13.422,2.995
	c-0.227,0.057-0.461,0.1-0.689,0.159c-4.715,1.209-9.366,2.574-13.973,4.041c-1.238,0.393-2.455,0.834-3.684,1.246
	c-3.368,1.129-6.71,2.313-10.014,3.577c-1.408,0.538-2.808,1.095-4.205,1.657c-3.246,1.309-6.456,2.686-9.634,4.122
	c-1.195,0.538-2.398,1.062-3.583,1.619c-4.16,1.956-8.273,4-12.306,6.173c-0.115,0.063-0.236,0.117-0.351,0.18
	c-4.299,2.323-8.515,4.781-12.662,7.338c-0.762,0.471-1.505,0.972-2.263,1.45c-3.296,2.081-6.543,4.227-9.736,6.452
	c-1.002,0.698-1.994,1.411-2.986,2.123c-3.037,2.183-6.023,4.429-8.959,6.738c-0.841,0.661-1.69,1.311-2.521,1.982
	c-7.552,6.094-14.765,12.595-21.576,19.496c-0.322,0.326-0.628,0.666-0.948,0.993c-3.01,3.083-5.937,6.244-8.79,9.476
	c-0.668,0.756-1.322,1.522-1.981,2.285c-2.57,2.982-5.073,6.023-7.506,9.122c-0.575,0.732-1.158,1.457-1.725,2.195
	c-2.891,3.764-5.702,7.594-8.384,11.519c21.696,14.268,53.174,27.221,80.883,37.067C211.962,75.999,278.795,21.622,359.441,5.172
	c-6.56-1.315-13.223-2.339-19.941-3.176c-2.23-0.267-4.448-0.573-6.696-0.78c-2.404-0.237-4.828-0.409-7.251-0.576
	C320.061,0.289,314.549,0,308.966,0c-5.036,0-10.027,0.184-14.991,0.472C292.425,0.562,290.889,0.707,289.346,0.823z"/>
<g>
	<path style="fill:#FF5A4E;" d="M203.034,229.517h-17.655c0-9.732-7.918-17.655-17.655-17.655s-17.655,7.923-17.655,17.655h-17.655
		c0-19.474,15.84-35.31,35.31-35.31S203.034,210.044,203.034,229.517z"/>
	<path style="fill:#FF5A4E;" d="M247.172,361.931h-52.966c-4.875,0-8.828-3.953-8.828-8.828l0,0c0-4.875,3.953-8.828,8.828-8.828
		h52.966V361.931z"/>
</g>
<g>
	<circle style="fill:#FFC83C;" cx="114.759" cy="291.31" r="17.655"/>
	<circle style="fill:#FFC83C;" cx="136.828" cy="339.862" r="13.241"/>
</g>
<circle style="fill:#FFB432;" cx="189.793" cy="295.724" r="13.241"/>
<circle style="fill:#FFC83C;" cx="176.552" cy="423.724" r="8.828"/>
<circle style="fill:#FFB432;" cx="229.517" cy="397.241" r="8.828"/>
<g>
	<circle style="fill:#FFC83C;" cx="141.241" cy="158.897" r="8.828"/>
	<circle style="fill:#FFC83C;" cx="445.793" cy="119.172" r="13.241"/>
</g>
<path style="fill:#FFB432;" d="M439.172,119.172c0-6.163,4.23-11.297,9.931-12.772c-1.064-0.276-2.161-0.469-3.31-0.469
	c-7.313,0-13.241,5.928-13.241,13.241c0,7.313,5.929,13.241,13.241,13.241c1.15,0,2.247-0.192,3.31-0.469
	C443.402,130.47,439.172,125.335,439.172,119.172z"/>
<g>
</g>
<g>
</g>
<g>
</g>
<g>
</g>
<g>
</g>
<g>
</g>
<g>
</g>
<g>
</g>
<g>
</g>
<g>
</g>
<g>
</g>
<g>
</g>
<g>
</g>
<g>
</g>
<g>
</g>
</svg>
