<?xml version="1.0" encoding="UTF-8" standalone="no"?>
<!-- Generator: Adobe Illustrator 18.0.0, SVG Export Plug-In . SVG Version: 6.00 Build 0)  -->

<svg
   xmlns:dc="http://purl.org/dc/elements/1.1/"
   xmlns:cc="http://creativecommons.org/ns#"
   xmlns:rdf="http://www.w3.org/1999/02/22-rdf-syntax-ns#"
   xmlns:svg="http://www.w3.org/2000/svg"
   xmlns="http://www.w3.org/2000/svg"
   xmlns:sodipodi="http://sodipodi.sourceforge.net/DTD/sodipodi-0.dtd"
   xmlns:inkscape="http://www.inkscape.org/namespaces/inkscape"
   version="1.1"
   id="Capa_1"
   x="0px"
   y="0px"
   viewBox="0 0 415.76 415.76"
   style="enable-background:new 0 0 415.76 415.76;"
   xml:space="preserve"
   inkscape:version="0.91 r13725"
   sodipodi:docname="unicorn.svg"><metadata
     id="metadata61"><rdf:RDF><cc:Work
         rdf:about=""><dc:format>image/svg+xml</dc:format><dc:type
           rdf:resource="http://purl.org/dc/dcmitype/StillImage" /><dc:title></dc:title></cc:Work></rdf:RDF></metadata><defs
     id="defs59" /><sodipodi:namedview
     pagecolor="#ffffff"
     bordercolor="#666666"
     borderopacity="1"
     objecttolerance="10"
     gridtolerance="10"
     guidetolerance="10"
     inkscape:pageopacity="0"
     inkscape:pageshadow="2"
     inkscape:window-width="640"
     inkscape:window-height="480"
     id="namedview57"
     showgrid="false" /><path
     inkscape:connector-curvature="0"
     id="path5"
     d="m 340.25,207.875 c 0,77.67 -52.03,143.18 -123.15,163.56 -5.31,1.52 -10.72,2.79 -16.22,3.79 -9.98,1.83 -20.25,2.78 -30.75,2.78 -5.91,0 -11.74,-0.3 -17.49,-0.89 -10.12,-1.03 -19.97,-2.95 -29.48,-5.68 -0.88,-0.25 -1.76,-0.51 -2.64,-0.79 -11.25,-3.42 -22,-7.98 -32.13,-13.54 C 47.44,334.645 16.75,295.815 5.12,249.425 3.17,241.695 1.76,233.765 0.92,225.655 0.31,219.815 0,213.875 0,207.875 c 0,-1.86 0.03,-3.7 0.09,-5.55 2.55,-79.7 59.94,-145.56 135.67,-161.09 11.1,-2.28 22.6,-3.48 34.37,-3.48 24.09,0 47.01,5.01 67.77,14.04 60.23,26.18 102.35,86.22 102.35,156.08 z"
     style="fill:#4d4d4d" /><path
     inkscape:connector-curvature="0"
     id="path7"
     d="m 287.39,168.341 0,116.394 c 0,6.609 -5.358,11.967 -11.967,11.967 l -19.573,0 c -17.419,0 -31.54,-14.121 -31.54,-31.54 l 0,-13.92 c -23.27,-4.27 -40.8,-23.6 -42.78,-47.17 l -3.56,-42.52 0,43.35 c 0,17.08 9.19,36.18 22.91,46.21 l 0,5.76 c 0,43.39 -22.9,81.43 -57.27,102.69 -7.22,4.47 -14.96,8.2 -23.09,11.08 -38.77,-11.79 -71.67,-37.06 -93.25,-70.35 -14.22,-21.92 -23.51,-47.32 -26.35,-74.64 4.9,-2.92 9.62,-6.13 14.14,-9.6 17.81,-13.64 32.49,-31.38 42.5,-52.18 24.76,-51.48 77.41,-87.01 138.35,-87.01 22.61,0 43.3,8.2 59.26,21.8 19.72,16.769 32.22,41.769 32.22,69.679 z"
     style="fill:#f2f2f2" /><path
     inkscape:connector-curvature="0"
     id="path9"
     d="m 272.584,209.918 0,0 c -10.056,0 -18.208,-8.152 -18.208,-18.208 l 0,0 0,0 c 10.056,0.001 18.208,8.153 18.208,18.208 l 0,0 z"
     style="fill:#4d4d4d" /><path
     inkscape:connector-curvature="0"
     id="path11"
     d="m 279.024,287.168 c 0,-4.776 -3.872,-8.647 -8.647,-8.647 -4.776,0 -8.647,3.872 -8.647,8.647"
     style="fill:#4d4d4d" /><path
     inkscape:connector-curvature="0"
     id="path13"
     d="m 267.24,87.941 c 0,0 -5.43,3.37 -12.07,10.72 -9.19,10.17 -20.71,27.98 -23.41,55.06 -4.63,46.31 -34.86,58.48 -35.33,58.66 0.44,-0.72 19.82,-32.23 5.33,-53.32 -14.67,-21.34 -78.67,10 -50,78 28.47,67.55 -49.62,107.47 -50.66,107.99 0.77,-0.79 36.4,-37.79 12.66,-80.66 -20.57,-37.14 -84.24,-33.19 -86.49,35.9 -14.22,-21.92 -23.51,-47.32 -26.35,-74.64 l -0.68,-8.66 c 0,0 14.82,-0.94 38.18,-40.6 23.37,-39.66 42,-81.33 113.34,-109.33 71.33,-28 115.48,20.88 115.48,20.88 z"
     style="fill:#fad6fc" /><polygon
     id="polygon15"
     points="356.3,191.791 335.87,194.341 316.59,196.741 287.39,200.391 287.39,168.341 288.3,168.451 313.08,171.551 339.33,174.821 364.1,177.911 364.11,177.911 415.76,184.361 375.57,189.381 "
     style="fill:#cccccc" /><polygon
     id="polygon17"
     points="288.3,168.451 313.08,171.551 335.87,194.341 316.59,196.741 "
     style="fill:#f2f2f2" /><polygon
     id="polygon19"
     points="339.33,174.821 364.1,177.911 364.11,177.911 375.57,189.381 356.3,191.791 "
     style="fill:#f2f2f2" /><path
     inkscape:connector-curvature="0"
     id="path21"
     d="m 275.399,123.039 c 0,0 -18.903,16.714 -9.642,39.352 0,0 6.667,-19.333 22.667,-22.667 16,-3.333 15.264,-29.843 -6,-32.667"
     style="fill:#fad6fc" /><path
     inkscape:connector-curvature="0"
     id="path23"
     d="m 243.373,133.308 0,0 c 30.409,0 55.061,-24.652 55.061,-55.061 l 0,0 0,0 c -30.409,0 -55.061,24.652 -55.061,55.061 l 0,0 z"
     style="fill:#f2f2f2" /><path
     inkscape:connector-curvature="0"
     id="path25"
     d="m 253.123,123.558 0,0 c 15.052,0 27.253,-12.202 27.253,-27.253 l 0,0 0,0 c -15.051,0 -27.253,12.202 -27.253,27.253 l 0,0 z"
     style="fill:#b3b3b3" /><g
     id="g27" /><g
     id="g29" /><g
     id="g31" /><g
     id="g33" /><g
     id="g35" /><g
     id="g37" /><g
     id="g39" /><g
     id="g41" /><g
     id="g43" /><g
     id="g45" /><g
     id="g47" /><g
     id="g49" /><g
     id="g51" /><g
     id="g53" /><g
     id="g55" /></svg>