<?xml version="1.0" encoding="UTF-8" standalone="no"?>
<!-- Generator: Adobe Illustrator 18.0.0, SVG Export Plug-In . SVG Version: 6.00 Build 0)  -->

<svg
   xmlns:dc="http://purl.org/dc/elements/1.1/"
   xmlns:cc="http://creativecommons.org/ns#"
   xmlns:rdf="http://www.w3.org/1999/02/22-rdf-syntax-ns#"
   xmlns:svg="http://www.w3.org/2000/svg"
   xmlns="http://www.w3.org/2000/svg"
   xmlns:sodipodi="http://sodipodi.sourceforge.net/DTD/sodipodi-0.dtd"
   xmlns:inkscape="http://www.inkscape.org/namespaces/inkscape"
   version="1.1"
   id="Capa_1"
   x="0px"
   y="0px"
   viewBox="0 0 415.76 415.76"
   style="enable-background:new 0 0 415.76 415.76;"
   xml:space="preserve"
   inkscape:version="0.91 r13725"
   sodipodi:docname="unicorn2.svg"><metadata
     id="metadata61"><rdf:RDF><cc:Work
         rdf:about=""><dc:format>image/svg+xml</dc:format><dc:type
           rdf:resource="http://purl.org/dc/dcmitype/StillImage" /><dc:title></dc:title></cc:Work></rdf:RDF></metadata><defs
     id="defs59" /><sodipodi:namedview
     pagecolor="#ffffff"
     bordercolor="#666666"
     borderopacity="1"
     objecttolerance="10"
     gridtolerance="10"
     guidetolerance="10"
     inkscape:pageopacity="0"
     inkscape:pageshadow="2"
     inkscape:window-width="1319"
     inkscape:window-height="744"
     id="namedview57"
     showgrid="false"
     inkscape:zoom="9.3201488"
     inkscape:cx="163.49052"
     inkscape:cy="358.61327"
     inkscape:window-x="47"
     inkscape:window-y="24"
     inkscape:window-maximized="1"
     inkscape:current-layer="Capa_1" /><path
     style="fill:#008b8b;fill-opacity:1"
     d="m 170.13086,37.755859 c -11.77,0 -23.27109,1.198516 -34.37109,3.478516 C 60.029754,56.764375 2.6398437,122.62422 0.08984375,202.32422 0.02984375,204.17422 0,206.015 0,207.875 c 0,6 -0.33384469,3.46304 0.27615533,9.30304 0.84000007,8.11 31.42032867,3.2736 33.37032867,11.0036 11.63,46.39 13.794141,106.46383 54.744141,128.92383 10.13,5.56 20.878905,10.11906 32.128905,13.53906 0.88,0.28 1.76063,0.54102 2.64063,0.79102 9.51,2.73 19.36046,4.64968 29.48046,5.67968 5.75,0.59 11.58024,0.89063 17.49024,0.89063 10.5,0 20.77,-0.95125 30.75,-2.78125 5.5,-1 10.90875,-2.26906 16.21875,-3.78906 71.12,-20.38 123.15039,-85.89055 123.15039,-163.56055 0,-69.86 -42.11961,-129.900078 -102.34961,-156.080078 -20.76,-9.03 -43.67953,-14.039063 -67.76953,-14.039063 z"
     id="path5"
     inkscape:connector-curvature="0"
     sodipodi:nodetypes="sccsccccccsccscs" /><path
     inkscape:connector-curvature="0"
     id="path7"
     d="m 287.39,168.341 0,116.394 c 0,6.609 -5.358,11.967 -11.967,11.967 l -19.573,0 c -17.419,0 -31.54,-14.121 -31.54,-31.54 l 0,-13.92 c -23.27,-4.27 -40.8,-23.6 -42.78,-47.17 l -3.56,-42.52 0,43.35 c 0,17.08 9.19,36.18 22.91,46.21 l 0,5.76 c 0,43.39 -22.9,81.43 -57.27,102.69 -7.22,4.47 -14.96,8.2 -23.09,11.08 -38.77,-11.79 -71.67,-37.06 -93.25,-70.35 -5.755986,-89.30979 23.558069,-118.85012 30.29,-136.42 24.76,-51.48 77.41,-87.01 138.35,-87.01 22.61,0 43.3,8.2 59.26,21.8 19.72,16.769 32.22,41.769 32.22,69.679 z"
     style="fill:#ffffff;fill-opacity:1"
     sodipodi:nodetypes="ssssscccscsccccscs" /><path
     inkscape:connector-curvature="0"
     id="path9"
     d="m 272.584,209.918 0,0 c -10.056,0 -18.208,-8.152 -18.208,-18.208 l 0,0 0,0 c 10.056,0.001 18.208,8.153 18.208,18.208 l 0,0 z"
     style="fill:#4d4d4d" /><path
     inkscape:connector-curvature="0"
     id="path11"
     d="m 279.024,287.168 c 0,-4.776 -3.872,-8.647 -8.647,-8.647 -4.776,0 -8.647,3.872 -8.647,8.647"
     style="fill:#4d4d4d" /><path
     inkscape:connector-curvature="0"
     id="path13"
     d="m 267.24,87.941 c 0,0 -5.43,3.37 -12.07,10.72 -9.19,10.17 -20.71,27.98 -23.41,55.06 -4.63,46.31 -34.86,58.48 -35.33,58.66 0.44,-0.72 19.82,-32.23 5.33,-53.32 -14.67,-21.34 -78.67,10 -50,78 28.47,67.55 -49.62,107.47 -50.66,107.99 0.77,-0.79 36.4,-37.79 12.66,-80.66 -20.57,-37.14 -84.24,-33.19 -86.49,35.9 -14.22,-21.92 -23.51,-47.32 -26.35,-74.64 l -0.68,-8.66 c 0,0 14.82,-0.94 38.18,-40.6 23.37,-39.66 42,-81.33 113.34,-109.33 71.33,-28 115.48,20.88 115.48,20.88 z"
     style="fill:#c5142c;fill-opacity:1" /><polygon
     id="polygon15"
     points="356.3,191.791 335.87,194.341 316.59,196.741 287.39,200.391 287.39,168.341 288.3,168.451 313.08,171.551 339.33,174.821 364.1,177.911 364.11,177.911 415.76,184.361 375.57,189.381 "
     style="fill:#4d4d4d;fill-opacity:1" /><polygon
     id="polygon17"
     points="288.3,168.451 313.08,171.551 335.87,194.341 316.59,196.741 "
     style="fill:#ffffff;fill-opacity:1" /><polygon
     id="polygon19"
     points="339.33,174.821 364.1,177.911 364.11,177.911 375.57,189.381 356.3,191.791 "
     style="fill:#ffffff;fill-opacity:1" /><path
     inkscape:connector-curvature="0"
     id="path21"
     d="m 275.399,123.039 c 0,0 -18.903,16.714 -9.642,39.352 0,0 6.667,-19.333 22.667,-22.667 16,-3.333 15.264,-29.843 -6,-32.667"
     style="fill:#c5142c;fill-opacity:1" /><path
     inkscape:connector-curvature="0"
     id="path23"
     d="m 243.373,133.308 0,0 c 30.409,0 55.061,-24.652 55.061,-55.061 l 0,0 0,0 c -30.409,0 -55.061,24.652 -55.061,55.061 l 0,0 z"
     style="fill:#ffffff;fill-opacity:1" /><path
     inkscape:connector-curvature="0"
     id="path25"
     d="m 253.123,123.558 0,0 c 15.052,0 27.253,-12.202 27.253,-27.253 l 0,0 0,0 c -15.051,0 -27.253,12.202 -27.253,27.253 l 0,0 z"
     style="fill:#c5142c;fill-opacity:1" /><g
     id="g27" /><g
     id="g29" /><g
     id="g31" /><g
     id="g33" /><g
     id="g35" /><g
     id="g37" /><g
     id="g39" /><g
     id="g41" /><g
     id="g43" /><g
     id="g45" /><g
     id="g47" /><g
     id="g49" /><g
     id="g51" /><g
     id="g53" /><g
     id="g55" /></svg>