<?xml version="1.0" encoding="iso-8859-1"?>
<!-- Generator: Adobe Illustrator 19.0.0, SVG Export Plug-In . SVG Version: 6.00 Build 0)  -->
<svg version="1.1" id="Capa_1" xmlns="http://www.w3.org/2000/svg" xmlns:xlink="http://www.w3.org/1999/xlink" x="0px" y="0px"
	 viewBox="0 0 460 460" style="enable-background:new 0 0 460 460;" xml:space="preserve">
<g>
	<path style="fill:#6E4141;" d="M306.443,271.769l16.293-4.889c4.351-1.305,4.351-4.458,0-5.764l-16.101-4.831
		c0.212,1.486,0.328,3.001,0.328,4.541C306.963,264.338,306.793,268.006,306.443,271.769z"/>
	<path style="fill:#FFE6D2;" d="M214.242,300.961c0.14-0.067,0.279-0.134,0.418-0.202
		C214.521,300.828,214.382,300.894,214.242,300.961z"/>
	<path style="fill:#FFE6D2;" d="M143.221,302.107c4.116,9.995,10.683,18.891,18.779,26.446v0
		C153.904,320.998,147.337,312.102,143.221,302.107z"/>
	<path style="fill:#FFE6D2;" d="M212.553,301.746c0.075-0.033,0.15-0.067,0.226-0.101
		C212.703,301.679,212.628,301.712,212.553,301.746z"/>
	<path style="fill:#FFE6D2;" d="M188.427,307.271c-6.189,0.33-12.218-0.039-17.771-0.78c10.56,21.151,32.127,36.911,55.343,44.489
		v-49.316C213.655,307.363,200.26,308.277,188.427,307.271z"/>
	<path style="fill:#FFE6D2;" d="M170,335.222L170,335.222c13.872,10.338,30.751,17.254,47.336,19.745
		C200.751,352.476,183.872,345.56,170,335.222z"/>
	<path style="fill:#FFE6D2;" d="M215.979,300.085c0.151-0.079,0.302-0.155,0.452-0.236
		C216.281,299.929,216.13,300.005,215.979,300.085z"/>
	<path style="fill:#FFE6D2;" d="M290,322.645v-0.078c-10.252,16.235-25.632,28.962-47.333,32.388c0.04,0.006,0.08,0.014,0.12,0.02
		c-2.837,0.454-5.748,0.799-8.787,0.946v0.01C260.359,354.895,278.435,340.99,290,322.645z"/>
	<path style="fill:#FFE6D2;" d="M226,355.848L226,355.848c-2.868-0.16-5.76-0.445-8.664-0.881
		C220.24,355.403,223.132,355.688,226,355.848z"/>
	<path style="fill:#FFE6D2;" d="M290,300.875V260c0-9.528-0.353-18.884-1.019-27.992c-4.156-2.03-8.815-3.172-13.736-3.172
		c2.345,0,4.615,0.298,6.815,0.789c-14.258,2.446-23.753,13.891-25.844,30.935c-0.843,6.869-3.468,14.138-7.542,20.765
		c2.966,4.337,5.037,7.744,6.245,9.826c0.856,1.475,1.284,3.153,1.284,4.908v0.034c0,5.474-4.263,9.727-9.155,9.082
		c-3.571-0.471-8.027-1.157-13.049-2.132v50.205c0.028,0.007,0.056,0.014,0.084,0.021C241.868,327.169,263.227,306.974,290,300.875z
		 M281.584,248.138c3.504,0,6.345,2.841,6.345,6.345s-2.841,6.345-6.345,6.345c-3.504,0-6.345-2.841-6.345-6.345
		S278.08,248.138,281.584,248.138z"/>
	<path style="fill:#FFE6D2;" d="M306.963,260.827c0-1.541-0.116-3.056-0.328-4.541c-1.012-7.091-4.356-13.464-9.228-18.282
		C297.791,245.188,298,252.523,298,260v39.489c0.926-0.109,1.856-0.206,2.792-0.281c-0.836,2.574-1.769,5.129-2.792,7.651v0.063
		c4.684-11.544,7.389-23.791,8.443-35.153C306.793,268.006,306.963,264.338,306.963,260.827z"/>
	<circle style="fill:#6E4141;" cx="281.584" cy="254.482" r="6.345"/>
	<path style="fill:#FFD7B4;" d="M143.221,302.107c4.116,9.995,10.683,18.891,18.779,26.445v-23.598
		c-11.865-2.505-20.003-6.059-20.003-6.059C142.377,299.979,142.786,301.049,143.221,302.107z"/>
	<path style="fill:#FFD7B4;" d="M226,355.848v-4.868c-23.216-7.578-44.783-23.338-55.343-44.489
		c-0.007-0.014-0.015-0.028-0.022-0.042c-0.213-0.029-0.423-0.06-0.635-0.09v28.863c13.872,10.338,30.751,17.254,47.336,19.745
		C220.24,355.403,223.132,355.688,226,355.848z"/>
	<path style="fill:#FFD7B4;" d="M242.667,354.955c21.702-3.426,37.081-16.154,47.333-32.388v-21.692
		c-26.773,6.099-48.132,26.294-55.916,52.395c-0.028-0.007-0.056-0.014-0.084-0.021v2.672c3.039-0.147,5.95-0.492,8.787-0.946
		C242.747,354.969,242.707,354.961,242.667,354.955z"/>
	<path style="fill:#FFD7B4;" d="M217.617,299.186c-0.394,0.224-0.788,0.449-1.185,0.662c-0.15,0.081-0.302,0.157-0.452,0.236
		c-0.438,0.23-0.877,0.457-1.318,0.674c-0.139,0.069-0.279,0.135-0.418,0.202c-0.486,0.235-0.974,0.464-1.464,0.683
		c-0.075,0.034-0.15,0.068-0.226,0.101c-7.992,3.542-16.402,5.101-24.53,5.494c0.133,0.012,0.27,0.019,0.404,0.031
		c11.833,1.006,25.227,0.092,37.573-5.607v-0.33C223.294,300.702,220.488,299.988,217.617,299.186z"/>
	<path style="fill:#FFD7B4;" d="M243.527,260.294c-0.109,0.891-0.248,1.79-0.417,2.692c-0.481,2.581-1.209,5.198-2.15,7.798
		c3.036,3.893,5.602,7.453,7.715,10.541c4.074-6.627,6.699-13.896,7.542-20.765c2.091-17.044,11.585-28.489,25.844-30.935
		c-2.2-0.491-4.47-0.789-6.815-0.789C257.725,228.837,245.894,241,243.527,260.294z"/>
	<path style="fill:#EBC3A5;" d="M176.259,280.759c12.706,8.824,27.758,14.628,41.357,18.427c2.871,0.802,5.677,1.516,8.383,2.148
		v-47.858c-13.096-13.714-30.643-28.719-53.012-41.134C171.053,227.43,170,243.46,170,260v5.869
		c5.867,3.246,14.723,6.515,16.738,8.552C187.527,275.219,174.847,279.778,176.259,280.759z"/>
	<path style="fill:#EBC3A5;" d="M162.036,255.381c0.181-16.478,1.323-32.27,3.301-47.08c-7.306-3.674-15.078-7.057-23.339-10.025
		C141.997,198.276,150.016,227.392,162.036,255.381z"/>
	<path style="fill:#EBC3A5;" d="M256.204,296.094v-0.034c0-1.755-0.429-3.433-1.284-4.908c-1.208-2.082-3.279-5.489-6.245-9.826
		c-2.112-3.088-4.679-6.648-7.715-10.541c-2.094-2.686-4.416-5.531-6.96-8.487v40.746c5.022,0.975,9.478,1.662,13.049,2.132
		C251.942,305.821,256.204,301.569,256.204,296.094z"/>
	<path style="fill:#FFD7B4;" d="M298,299.489v7.37c1.023-2.522,1.956-5.076,2.792-7.651C299.856,299.283,298.926,299.38,298,299.489
		z"/>
	<path style="fill:#FFD796;" d="M74,260c0-65.298,40.373-121.273,97.433-144.49C132.521,143.211,106,197.574,106,260v168h8V260
		c0-73.963,38.516-135.939,89.964-151.893c-18.366,17.88-32.499,54.308-38.627,100.194c-1.978,14.81-3.12,30.602-3.301,47.08
		C162.019,256.917,162,258.452,162,260v44.955v23.598v0V428h8v-92.778v0V306.36v-40.49V260c0-16.54,1.053-32.57,2.988-47.658
		c7.55-58.852,28.546-103.357,53.012-107.797v148.931v47.858v0.33v49.316v4.868l0,0V428h8v-72.069v-0.01v-2.672v-50.205v-40.746
		V104.545c27.125,4.923,49.981,59.094,54.981,127.463C289.647,241.116,290,250.472,290,260v40.875v21.692v0.078V428h8V306.922
		v-0.063v-7.37V260c0-7.477-0.209-14.812-0.593-21.997c-3.187-59.68-19.195-108.306-41.371-129.897
		C307.484,124.061,346,186.037,346,260v168h8V260c0-62.426-26.521-116.789-65.433-144.49C345.627,138.727,386,194.702,386,260v168h8
		V260c0-85.599-65.947-155.988-149.689-163.275c22.76-14.767,43.533-39.854,43.533-61.342C287.844,15.875,271.969,0,252.461,0
		c-8.148,0-15.891,2.742-22.156,7.789C224.047,2.742,216.313,0,208.156,0c-19.516,0-35.391,15.875-35.391,35.383
		c0,21.469,20.748,46.538,43.493,61.313C132.25,103.714,66,174.208,66,260v168h8V260z M180.766,35.383
		C180.766,20.281,193.055,8,208.156,8c7.297,0,14.156,2.836,19.32,7.992l2.828,2.813l2.82-2.813C238.305,10.836,245.164,8,252.461,8
		c15.102,0,27.383,12.281,27.383,27.383c0,21.445-25.766,48.484-49.539,60.188C206.531,83.859,180.766,56.828,180.766,35.383z"/>
	<path style="fill:#6B3C41;" d="M398,460H214c-8.837,0-16-7.163-16-16c0-8.835,7.161-15.998,15.996-16H170h-8h-48h-8H74h-8h-4
		c-8.837,0-16,7.163-16,16s7.163,16,16,16L398,460c8.836,0,16-7.163,16-16v0C414,452.836,406.837,460,398,460z"/>
	<path style="fill:#7D5050;" d="M354,428h-8h-48h-8h-56h-8h-12c-0.001,0-0.002,0-0.004,0c-8.835,0.002-15.996,7.164-15.996,16
		c0,8.837,7.163,16,16,16h184c8.836,0,16-7.164,16-16v0c0-8.837-7.163-16-16-16h-4h-8H354z"/>
</g>
<g>
</g>
<g>
</g>
<g>
</g>
<g>
</g>
<g>
</g>
<g>
</g>
<g>
</g>
<g>
</g>
<g>
</g>
<g>
</g>
<g>
</g>
<g>
</g>
<g>
</g>
<g>
</g>
<g>
</g>
</svg>
