<?xml version="1.0" encoding="iso-8859-1"?>
<!-- Generator: Adobe Illustrator 18.0.0, SVG Export Plug-In . SVG Version: 6.00 Build 0)  -->
<!DOCTYPE svg PUBLIC "-//W3C//DTD SVG 1.1//EN" "http://www.w3.org/Graphics/SVG/1.1/DTD/svg11.dtd">
<svg version="1.1" id="Capa_1" xmlns="http://www.w3.org/2000/svg" xmlns:xlink="http://www.w3.org/1999/xlink" x="0px" y="0px"
	 viewBox="0 0 55 55" style="enable-background:new 0 0 55 55;" xml:space="preserve">
<g>
	<path style="fill:#D1D4D1;" d="M31.708,32.648c-1.221,0-2.296-0.376-3.082-1.161c-0.391-0.391-0.391-1.023,0-1.414
		s1.023-0.391,1.414,0c0.603,0.603,1.704,0.742,3.023,0.381c1.534-0.418,3.156-1.426,4.567-2.836
		c1.612-1.612,3.749-2.541,6.016-2.613c2.037-0.065,3.929,0.571,5.061,1.704c0.391,0.391,0.391,1.023,0,1.414s-1.023,0.391-1.414,0
		c-0.727-0.727-2.134-1.182-3.583-1.119c-1.757,0.056-3.414,0.776-4.666,2.028C36.705,31.372,33.958,32.648,31.708,32.648z"/>
	<path style="fill:#464F5D;" d="M47,55c-0.256,0-0.512-0.098-0.707-0.293l-21-21c-0.391-0.391-0.391-1.023,0-1.414
		s1.023-0.391,1.414,0l21,21c0.391,0.391,0.391,1.023,0,1.414C47.512,54.902,47.256,55,47,55z"/>
	<path style="fill:#556080;" d="M3.52,17.693l17.66,17.66c6.355-2.724,11.418-7.787,14.142-14.142l-17.66-17.66L3.52,17.693z"/>
	<polygon style="fill:#F0C419;" points="10.992,14.279 11.922,16.162 14,16.464 12.496,17.93 12.851,20 10.992,19.023 9.134,20 
		9.489,17.93 7.985,16.464 10.063,16.162 	"/>
	<polygon style="fill:#F0C419;" points="18.008,9 18.937,10.883 21.015,11.185 19.511,12.651 19.866,14.721 18.008,13.743 
		16.149,14.721 16.504,12.651 15,11.185 17.078,10.883 	"/>
	<polygon style="fill:#F0C419;" points="20.992,24.279 21.922,26.162 24,26.464 22.496,27.93 22.851,30 20.992,29.023 19.134,30 
		19.489,27.93 17.985,26.464 20.063,26.162 	"/>
	<polygon style="fill:#F0C419;" points="28.008,20.279 28.937,22.162 31.015,22.464 29.511,23.93 29.866,26 28.008,25.023 
		26.149,26 26.504,23.93 25,22.464 27.078,22.162 	"/>
	<polygon style="fill:#F0C419;" points="20.992,16.279 21.922,18.162 24,18.464 22.496,19.93 22.851,22 20.992,21.023 19.134,22 
		19.489,19.93 17.985,18.464 20.063,18.162 	"/>
	<polygon style="fill:#E64C3C;" points="0,21.213 0,0 21.213,0 	"/>
	<path style="fill:#F0C419;" d="M49,25c-0.553,0-1-0.447-1-1v-2c0-0.553,0.447-1,1-1s1,0.447,1,1v2C50,24.553,49.553,25,49,25z"/>
	<path style="fill:#F0C419;" d="M54,28h-2c-0.553,0-1-0.447-1-1s0.447-1,1-1h2c0.553,0,1,0.447,1,1S54.553,28,54,28z"/>
	<path style="fill:#F0C419;" d="M51,26c-0.256,0-0.512-0.098-0.707-0.293c-0.391-0.391-0.391-1.023,0-1.414l2-2
		c0.391-0.391,1.023-0.391,1.414,0s0.391,1.023,0,1.414l-2,2C51.512,25.902,51.256,26,51,26z"/>
	<path style="fill:#F0C419;" d="M49,33c-0.553,0-1-0.447-1-1v-2c0-0.553,0.447-1,1-1s1,0.447,1,1v2C50,32.553,49.553,33,49,33z"/>
	<path style="fill:#F0C419;" d="M53,32c-0.256,0-0.512-0.098-0.707-0.293l-2-2c-0.391-0.391-0.391-1.023,0-1.414
		s1.023-0.391,1.414,0l2,2c0.391,0.391,0.391,1.023,0,1.414C53.512,31.902,53.256,32,53,32z"/>
</g>
<g>
</g>
<g>
</g>
<g>
</g>
<g>
</g>
<g>
</g>
<g>
</g>
<g>
</g>
<g>
</g>
<g>
</g>
<g>
</g>
<g>
</g>
<g>
</g>
<g>
</g>
<g>
</g>
<g>
</g>
</svg>
