<?xml version="1.0" encoding="iso-8859-1"?>
<!-- Generator: Adobe Illustrator 18.0.0, SVG Export Plug-In . SVG Version: 6.00 Build 0)  -->
<!DOCTYPE svg PUBLIC "-//W3C//DTD SVG 1.1//EN" "http://www.w3.org/Graphics/SVG/1.1/DTD/svg11.dtd">
<svg version="1.1" id="Capa_1" xmlns="http://www.w3.org/2000/svg" xmlns:xlink="http://www.w3.org/1999/xlink" x="0px" y="0px"
	 viewBox="0 0 58 58" style="enable-background:new 0 0 58 58;" xml:space="preserve">
<g>
	<polygon style="fill:#E6E7E8;" points="36,46 29,38 22,46 22,36 12,37 20,30 12.331,23 22,23 22,12 29,20 36,12 36,23 46,23 38,30 
		46,36.935 36,36 	"/>
	<path style="fill:#D1D4D1;" d="M52,29h-3.586l2.293-2.293c0.391-0.391,0.391-1.023,0-1.414s-1.023-0.391-1.414,0L45.586,29H31.414
		l10-10h5.971c0.553,0,1-0.448,1-1s-0.447-1-1-1h-3.971l2.557-2.557c0.391-0.391,0.391-1.023,0-1.414s-1.023-0.391-1.414,0
		L42,15.586v-4.243c0-0.552-0.447-1-1-1s-1,0.448-1,1v6.243l-10,10V12.414l3.707-3.707c0.391-0.391,0.391-1.023,0-1.414
		s-1.023-0.391-1.414,0L30,9.586V6c0-0.552-0.447-1-1-1s-1,0.448-1,1v3.586l-2.293-2.293c-0.391-0.391-1.023-0.391-1.414,0
		s-0.391,1.023,0,1.414L28,12.414v14.787l-10-10V12c0-0.552-0.447-1-1-1s-1,0.448-1,1v3.201l-2.557-2.557
		c-0.391-0.391-1.023-0.391-1.414,0s-0.391,1.023,0,1.414L14.971,17H11c-0.553,0-1,0.448-1,1s0.447,1,1,1h5.971l10,10H12.414
		l-3.707-3.707c-0.391-0.391-1.023-0.391-1.414,0s-0.391,1.023,0,1.414L9.586,29H6c-0.553,0-1,0.448-1,1s0.447,1,1,1h3.586
		l-2.293,2.293c-0.391,0.391-0.391,1.023,0,1.414C7.488,34.902,7.744,35,8,35s0.512-0.098,0.707-0.293L12.414,31h14.172l-10,10H11
		c-0.553,0-1,0.448-1,1s0.447,1,1,1h3.586l-2.557,2.557c-0.391,0.391-0.391,1.023,0,1.414c0.195,0.195,0.451,0.293,0.707,0.293
		s0.512-0.098,0.707-0.293L16,44.414V48c0,0.552,0.447,1,1,1s1-0.448,1-1v-5.586l10-10v13.172l-3.707,3.707
		c-0.391,0.391-0.391,1.023,0,1.414C24.488,50.902,24.744,51,25,51s0.512-0.098,0.707-0.293L28,48.414V52c0,0.552,0.447,1,1,1
		s1-0.448,1-1v-3.586l2.293,2.293C32.488,50.902,32.744,51,33,51s0.512-0.098,0.707-0.293c0.391-0.391,0.391-1.023,0-1.414
		L30,45.586V32.029l10,10V48c0,0.552,0.447,1,1,1s1-0.448,1-1v-3.971l2.557,2.557c0.195,0.195,0.451,0.293,0.707,0.293
		s0.512-0.098,0.707-0.293c0.391-0.391,0.391-1.023,0-1.414L43.799,43h3.586c0.553,0,1-0.448,1-1s-0.447-1-1-1h-5.586l-10-10h13.787
		l3.707,3.707C49.488,34.902,49.744,35,50,35s0.512-0.098,0.707-0.293c0.391-0.391,0.391-1.023,0-1.414L48.414,31H52
		c0.553,0,1-0.448,1-1S52.553,29,52,29z"/>
	<circle style="fill:#E6E7E8;" cx="29" cy="3" r="3"/>
	<circle style="fill:#E6E7E8;" cx="29" cy="55" r="3"/>
	<circle style="fill:#E6E7E8;" cx="55" cy="30" r="3"/>
	<circle style="fill:#E6E7E8;" cx="3" cy="30" r="3"/>
	<circle style="fill:#E6E7E8;" cx="47.385" cy="11.615" r="3"/>
	<circle style="fill:#E6E7E8;" cx="10.615" cy="48.385" r="3"/>
	<circle style="fill:#E6E7E8;" cx="47.385" cy="48" r="3"/>
	<circle style="fill:#E6E7E8;" cx="10.615" cy="11.23" r="3"/>
</g>
<g>
</g>
<g>
</g>
<g>
</g>
<g>
</g>
<g>
</g>
<g>
</g>
<g>
</g>
<g>
</g>
<g>
</g>
<g>
</g>
<g>
</g>
<g>
</g>
<g>
</g>
<g>
</g>
<g>
</g>
</svg>
