<?xml version="1.0" encoding="UTF-8" standalone="no"?>
<!-- Generator: Adobe Illustrator 19.0.0, SVG Export Plug-In . SVG Version: 6.00 Build 0)  -->

<svg
   xmlns:dc="http://purl.org/dc/elements/1.1/"
   xmlns:cc="http://creativecommons.org/ns#"
   xmlns:rdf="http://www.w3.org/1999/02/22-rdf-syntax-ns#"
   xmlns:svg="http://www.w3.org/2000/svg"
   xmlns="http://www.w3.org/2000/svg"
   xmlns:sodipodi="http://sodipodi.sourceforge.net/DTD/sodipodi-0.dtd"
   xmlns:inkscape="http://www.inkscape.org/namespaces/inkscape"
   version="1.1"
   id="Layer_1"
   x="0px"
   y="0px"
   viewBox="0 0 493.108 493.108"
   style="enable-background:new 0 0 493.108 493.108;"
   xml:space="preserve"
   inkscape:version="0.91 r13725"
   sodipodi:docname="lion.svg"><metadata
     id="metadata113"><rdf:RDF><cc:Work
         rdf:about=""><dc:format>image/svg+xml</dc:format><dc:type
           rdf:resource="http://purl.org/dc/dcmitype/StillImage" /><dc:title></dc:title></cc:Work></rdf:RDF></metadata><defs
     id="defs111" /><sodipodi:namedview
     pagecolor="#ffffff"
     bordercolor="#666666"
     borderopacity="1"
     objecttolerance="10"
     gridtolerance="10"
     guidetolerance="10"
     inkscape:pageopacity="0"
     inkscape:pageshadow="2"
     inkscape:window-width="870"
     inkscape:window-height="480"
     id="namedview109"
     showgrid="false"
     inkscape:zoom="0.47859698"
     inkscape:cx="-2.0894407"
     inkscape:cy="246.554"
     inkscape:window-x="47"
     inkscape:window-y="24"
     inkscape:window-maximized="0"
     inkscape:current-layer="Layer_1" /><g
     id="g3"><path
       style="fill:#BF7616;"
       d="M158.708,235.345c0,6.4-4.8,11.2-11.2,11.2h-65.6c-6.4,0-11.2-4.8-11.2-11.2v-1.6   c0-6.4,4.8-11.2,11.2-11.2h65.6c6.4,0,11.2,4.8,11.2,11.2V235.345z"
       id="path5" /><path
       style="fill:#BF7616;"
       d="M86.708,241.745c-4.8,4-12,3.2-16-2.4l-39.2-52c-4-4.8-3.2-12,2.4-16l0,0c4.8-4,12-3.2,16,2.4   l39.2,52C93.108,231.345,92.308,238.545,86.708,241.745L86.708,241.745z"
       id="path7" /><path
       style="fill:#BF7616;"
       d="M49.108,176.145c3.2,5.6,4,11.2,0,13.6l-33.6,22.4c-3.2,2.4-8.8,0-12.8-5.6l0,0   c-3.2-4.8-4-11.2,0-13.6l33.6-22.4C39.508,168.145,45.108,170.545,49.108,176.145L49.108,176.145z"
       id="path9" /></g><path
     style="fill:#BF720C;"
     d="M177.108,381.745c14.4,15.2,36-20.8,72-54.4c36.8-33.6,39.2-20,25.6-35.2  c-14.4-15.2-20-32.8-56.8,0.8S163.508,366.545,177.108,381.745z"
     id="path11" /><path
     style="fill:#A05A07;"
     d="M249.108,326.545c36.8-33.6,39.2-20,25.6-35.2c-14.4-15.2-20-32.8-56.8,0.8"
     id="path13" /><path
     style="fill:#BF720C;"
     d="M493.108,258.545c0,18.4-35.2,8-79.2,8s-36.8,10.4-36.8-8s-6.4-32.8,36.8-32.8  C457.908,225.745,493.108,240.145,493.108,258.545z"
     id="path15" /><path
     style="fill:#A05A07;"
     d="M413.908,265.745c-44,0-36.8,10.4-36.8-8s-6.4-32.8,36.8-32.8"
     id="path17" /><path
     style="fill:#E29524;"
     d="M386.708,150.545c46.4,73.6-15.2,113.6-84,146.4c-69.6,32.8-144,20-166.4-28s44-52.8,112.8-85.6  C317.908,151.345,357.908,105.745,386.708,150.545z"
     id="path19" /><g
     id="g21"><path
       style="fill:#CE811B;"
       d="M301.908,296.145l-68.8-45.6l-36,54.4l16,10.4c27.2,2.4,58.4-3.2,88-17.6L301.908,296.145z"
       id="path23" /><path
       style="fill:#CE811B;"
       d="M248.308,184.145c69.6-32.8,109.6-78.4,137.6-32.8c46.4,73.6-15.2,113.6-84,146.4"
       id="path25" /></g><path
     style="fill:#512E04;"
     d="M462.708,140.945c0,61.6-48.8,111.2-109.6,111.2c-60,0-109.6-49.6-109.6-111.2  c0-17.6,27.2-111.2,109.6-111.2C413.908,28.945,462.708,79.345,462.708,140.945z"
     id="path27" /><path
     style="fill:#2B1500;"
     d="M353.108,28.945c60,0,109.6,49.6,109.6,111.2s-48.8,111.2-109.6,111.2"
     id="path29" /><g
     id="g31"><path
       style="fill:#E29524;"
       d="M451.508,153.745c0,28,7.2,53.6-37.6,52.8c-22.4-0.8-43.2-24-43.2-52.8c0-50.4-4-51.2,40.8-51.2   C455.508,103.345,451.508,125.745,451.508,153.745z"
       id="path33" /><path
       style="fill:#E29524;"
       d="M448.308,276.945c0,20.8-40,8.8-90.4,8.8c-49.6,0-42.4,12-42.4-8.8s-7.2-37.6,42.4-37.6   C408.308,239.345,448.308,256.145,448.308,276.945z"
       id="path35" /><path
       style="fill:#E29524;"
       d="M59.508,393.745c11.2,17.6,38.4-15.2,80-42.4c41.6-27.2,41.6-13.6,30.4-30.4s-14.4-35.2-56-8   C72.308,340.145,48.308,376.145,59.508,393.745z"
       id="path37" /><ellipse
       style="fill:#E29524;"
       cx="185.108"
       cy="276.945"
       rx="66.4"
       ry="60"
       id="ellipse39" /><path
       style="fill:#E29524;"
       d="M470.708,176.945c0,16-12.8,29.6-28.8,29.6h-19.2c-16,0-32-14.4-32-29.6v-18.4c0-16,16-32,32-32   h35.2c16,0,12.8,16.8,12.8,32V176.945z"
       id="path41" /></g><path
     style="fill:#DDBA28;"
     d="M236.308,207.345c0.8,2.4,0,5.6-3.2,7.2l-56,22.4c-3.2,0.8-5.6,0-7.2-3.2l0,0c-0.8-2.4,0-5.6,3.2-7.2  l56-22.4C232.308,203.345,235.508,204.945,236.308,207.345L236.308,207.345z"
     id="path43" /><path
     style="fill:#E29524;"
     d="M397.108,107.345c6.4,13.6-4,8-11.2,11.2c-7.2,4-8.8,15.2-16,2.4c-6.4-13.6-6.4-27.2,1.6-30.4  S390.708,94.545,397.108,107.345z"
     id="path45" /><path
     style="fill:#BF7616;"
     d="M392.308,112.145c4.8,10.4-3.2,5.6-8.8,8.8s-7.2,12-12,1.6s-4.8-20.8,0.8-24  C377.908,96.145,386.708,101.745,392.308,112.145z"
     id="path47" /><path
     style="fill:#E29524;"
     d="M423.508,104.945c-7.2,11.2,2.4,7.2,8.8,11.2c6.4,4,6.4,14.4,14.4,3.2c7.2-11.2,8-24,1.6-28  C441.908,88.145,430.708,93.745,423.508,104.945z"
     id="path49" /><path
     style="fill:#032B27;"
     d="M411.508,124.945c-0.8,0-1.6,0-2.4,0.8c0.8,0.8,1.6,2.4,1.6,3.2c0,3.2-2.4,5.6-5.6,5.6l0,0  c0.8,3.2,3.2,4.8,6.4,4.8c4,0,7.2-3.2,7.2-7.2S415.508,124.945,411.508,124.945z"
     id="path51" /><path
     style="fill:#1D4F49;"
     d="M418.708,132.145c0-4-3.2-7.2-7.2-7.2c-0.8,0-1.6,0-2.4,0.8c0.8,0.8,1.6,2.4,1.6,3.2  c0,3.2-2.4,5.6-5.6,5.6"
     id="path53" /><path
     style="fill:#032B27;"
     d="M473.908,138.545c0,7.2-5.6,12-12.8,12h-3.2c-7.2,0-12.8-4.8-12.8-12l0,0c0-7.2,5.6-12,12.8-12h3.2  C468.308,126.545,473.908,131.345,473.908,138.545L473.908,138.545z"
     id="path55" /><path
     style="fill:#1D4F49;"
     d="M462.708,136.945c0,4-3.2,6.4-6.4,6.4h-1.6c-4,0-6.4-3.2-6.4-6.4l0,0c0-4,3.2-6.4,6.4-6.4h1.6  C459.508,130.545,462.708,133.745,462.708,136.945L462.708,136.945z"
     id="path57" /><g
     id="g59"><circle
       style="fill:#DDBA28;"
       cx="429.908"
       cy="165.745"
       r="4"
       id="circle61" /><circle
       style="fill:#DDBA28;"
       cx="414.708"
       cy="164.145"
       r="2.4"
       id="circle63" /><circle
       style="fill:#DDBA28;"
       cx="429.108"
       cy="152.945"
       r="2.4"
       id="circle65" /><circle
       style="fill:#DDBA28;"
       cx="421.908"
       cy="180.145"
       r="2.4"
       id="circle67" /></g><path
     style="fill:#DDBA28;"
     d="M436.308,114.545c0,1.6-1.6,4-3.2,4h-26.4c-1.6,0-3.2-2.4-3.2-4l0,0c0-1.6,1.6-4,3.2-4h26.4  C434.708,110.545,436.308,112.945,436.308,114.545L436.308,114.545z"
     id="path73" /><path
     style="fill:#7C4912;"
     d="M281.908,75.345c-17.6,23.2-24.8,46.4-17.6,52c7.2,5.6,28-8.8,44.8-32c17.6-22.4,25.6-45.6,17.6-51.2  C319.508,38.545,299.508,52.145,281.908,75.345z"
     id="path75" /><ellipse
     style="fill:#DDBA28;"
     cx="396.308"
     cy="147.345"
     rx="14.4"
     ry="8"
     id="ellipse77" /><g
     id="g79" /><g
     id="g81" /><g
     id="g83" /><g
     id="g85" /><g
     id="g87" /><g
     id="g89" /><g
     id="g91" /><g
     id="g93" /><g
     id="g95" /><g
     id="g97" /><g
     id="g99" /><g
     id="g101" /><g
     id="g103" /><g
     id="g105" /><g
     id="g107" /></svg>