<?xml version="1.0" encoding="UTF-8" standalone="no"?>
<!-- Generator: Adobe Illustrator 19.0.0, SVG Export Plug-In . SVG Version: 6.00 Build 0)  -->

<svg
   xmlns:dc="http://purl.org/dc/elements/1.1/"
   xmlns:cc="http://creativecommons.org/ns#"
   xmlns:rdf="http://www.w3.org/1999/02/22-rdf-syntax-ns#"
   xmlns:svg="http://www.w3.org/2000/svg"
   xmlns="http://www.w3.org/2000/svg"
   xmlns:sodipodi="http://sodipodi.sourceforge.net/DTD/sodipodi-0.dtd"
   xmlns:inkscape="http://www.inkscape.org/namespaces/inkscape"
   version="1.1"
   id="Layer_1"
   x="0px"
   y="0px"
   viewBox="0 0 495.2 495.2"
   style="enable-background:new 0 0 495.2 495.2;"
   xml:space="preserve"
   inkscape:version="0.91 r13725"
   sodipodi:docname="canon.svg"><metadata
     id="metadata83"><rdf:RDF><cc:Work
         rdf:about=""><dc:format>image/svg+xml</dc:format><dc:type
           rdf:resource="http://purl.org/dc/dcmitype/StillImage" /><dc:title></dc:title></cc:Work></rdf:RDF></metadata><defs
     id="defs81" /><sodipodi:namedview
     pagecolor="#ffffff"
     bordercolor="#666666"
     borderopacity="1"
     objecttolerance="10"
     gridtolerance="10"
     guidetolerance="10"
     inkscape:pageopacity="0"
     inkscape:pageshadow="2"
     inkscape:window-width="1319"
     inkscape:window-height="744"
     id="namedview79"
     showgrid="false"
     inkscape:zoom="0.95315022"
     inkscape:cx="198.55677"
     inkscape:cy="192.80835"
     inkscape:window-x="47"
     inkscape:window-y="24"
     inkscape:window-maximized="1"
     inkscape:current-layer="Layer_1" /><path
     style="fill:#EFAC86;"
     d="M429.6,47.519c8,18.4,5.6,53.6-12.8,61.6s-50.4-0.8-54.4-31.2c-2.4-20,0-40.8,18.4-48.8  C399.2,20.319,420.8,29.119,429.6,47.519z"
     id="path5" /><path
     style="fill:#e29524;fill-opacity:1"
     d="M416.8,109.119c-18.4,8-50.4-0.8-54.4-31.2c-2.4-20,0-40.8,18.4-48.8"
     id="path7" /><path
     style="fill:#c5142c;fill-opacity:1"
     d="M360.8,198.719c-16.8,16.8-44,16.8-60.8,0l0,0c-16.8-16.8-16.8-44,0-60.8l39.2-39.2  c16.8-16.8,44-16.8,60.8,0l0,0c16.8,16.8,16.8,44,0,60.8L360.8,198.719z"
     id="path9" /><path
     style="fill:#c5142c;fill-opacity:1"
     d="M250.4,401.119c-40.8,40.8-100,47.2-132.8,14.4l-26.4-26.4c-32.8-32.8-26.4-92,14.4-132.8l134.4-97.6  c40.8-40.8,67.2-50.4,100-17.6l26.4,26.4c32.8,32.8,23.2,59.2-17.6,100L250.4,401.119z"
     id="path13" /><path
     style="fill:#008b8b;fill-opacity:1"
     d="M405.6,217.919c-7.2,7.2-18.4,7.2-24.8,0l-89.6-89.6c-7.2-7.2-7.2-18.4,0-24.8l0,0  c7.2-7.2,18.4-7.2,24.8,0l89.6,89.6C412.8,200.319,412.8,211.519,405.6,217.919L405.6,217.919z"
     id="path17" /><path
     style="fill:#e29524;fill-opacity:1"
     d="M144.8,272.319c-5.6,4.8-13.6,4.8-16.8,0.8l0,0c-3.2-4-0.8-11.2,4.8-16l95.2-74.4  c5.6-4.8,13.6-4.8,16.8-0.8l0,0c3.2,4,0.8,11.2-4.8,16L144.8,272.319z"
     id="path21" /><path
     style="fill:#008b8b;fill-opacity:1"
     d="M43.2,384.319l16-5.6l14.4,39.2c3.2,9.6,13.6,14.4,23.2,11.2c9.6-3.2,14.4-13.6,11.2-23.2l16-5.6  c6.4,18.4-3.2,38.4-20.8,44.8c-18.4,6.4-38.4-3.2-44.8-20.8L43.2,384.319z"
     id="path23" /><polygon
     style="fill:#e29524;fill-opacity:1"
     points="0,280.319 72.8,341.919 57.6,400.319 3.2,375.519 "
     id="polygon25" /><path
     style="fill:#e29524;fill-opacity:1"
     d="M192,471.519v-61.6c0-13.6-10.4-24-24-24s-24,11.2-24,24v61.6H192z"
     id="path33" /><circle
     style="fill:#c5142c;fill-opacity:1"
     cx="169.6"
     cy="410.719"
     r="10.4"
     id="circle37" /><path
     inkscape:connector-curvature="0"
     id="path43"
     d="m 491.8698,134.13762 c 0,11.2 -39.2,20.8 -86.4,20.8 -48,0 -33.6,-9.6 -33.6,-20.8 0,-11.2 -14.4,-20.8 33.6,-20.8 47.2,-0.8 86.4,8.8 86.4,20.8 z"
     style="fill:#c5142c;fill-opacity:1" /><path
     style="fill:#c5142c;fill-opacity:1"
     d="M356,76.319l84-8.8c0-3.2,0-6.4-0.8-8.8c-4-23.2-26.4-38.4-49.6-34.4s-38.4,26.4-34.4,49.6  C355.2,74.719,355.2,75.519,356,76.319z"
     id="path47" /><g
     id="g49" /><g
     id="g51" /><g
     id="g53" /><g
     id="g55" /><g
     id="g57" /><g
     id="g59" /><g
     id="g61" /><g
     id="g63" /><g
     id="g65" /><g
     id="g67" /><g
     id="g69" /><g
     id="g71" /><g
     id="g73" /><g
     id="g75" /><g
     id="g77" /></svg>