<?xml version="1.0" encoding="UTF-8" standalone="no"?>
<!-- Generator: Adobe Illustrator 19.0.0, SVG Export Plug-In . SVG Version: 6.00 Build 0)  -->

<svg
   xmlns:dc="http://purl.org/dc/elements/1.1/"
   xmlns:cc="http://creativecommons.org/ns#"
   xmlns:rdf="http://www.w3.org/1999/02/22-rdf-syntax-ns#"
   xmlns:svg="http://www.w3.org/2000/svg"
   xmlns="http://www.w3.org/2000/svg"
   xmlns:sodipodi="http://sodipodi.sourceforge.net/DTD/sodipodi-0.dtd"
   xmlns:inkscape="http://www.inkscape.org/namespaces/inkscape"
   version="1.1"
   id="Layer_1"
   x="0px"
   y="0px"
   viewBox="0 0 494.463 494.463"
   style="enable-background:new 0 0 494.463 494.463;"
   xml:space="preserve"
   inkscape:version="0.91 r13725"
   sodipodi:docname="elephant.svg"><metadata
     id="metadata125"><rdf:RDF><cc:Work
         rdf:about=""><dc:format>image/svg+xml</dc:format><dc:type
           rdf:resource="http://purl.org/dc/dcmitype/StillImage" /></cc:Work></rdf:RDF></metadata><defs
     id="defs123" /><sodipodi:namedview
     pagecolor="#ffffff"
     bordercolor="#666666"
     borderopacity="1"
     objecttolerance="10"
     gridtolerance="10"
     guidetolerance="10"
     inkscape:pageopacity="0"
     inkscape:pageshadow="2"
     inkscape:window-width="1366"
     inkscape:window-height="744"
     id="namedview121"
     showgrid="false"
     inkscape:zoom="0.95457089"
     inkscape:cx="197.99172"
     inkscape:cy="225.16879"
     inkscape:window-x="0"
     inkscape:window-y="24"
     inkscape:window-maximized="1"
     inkscape:current-layer="Layer_1" /><rect
     x="119.231"
     y="410.46301"
     style="fill:#f79e00;fill-opacity:1"
     width="216"
     height="59.334309"
     id="rect3" /><polyline
     style="fill:#c5142c;fill-opacity:1"
     points="167.231,398.463 383.231,398.463 383.231,494.463 "
     id="polyline5"
     transform="matrix(1,0,0,0.5744161,-48,181.57944)" /><rect
     x="111.231"
     y="402.46301"
     style="fill:#f79e00"
     width="240"
     height="16"
     id="rect27" /><polygon
     style="fill:#000000;fill-opacity:1"
     points="109.631,305.663 131.231,251.263 107.231,247.263 "
     id="polygon31"
     transform="translate(-48,12)" /><g
     id="g35"
     style="fill:#005376;fill-opacity:1"
     transform="translate(-48,12)"><polygon
       style="fill:#005376;fill-opacity:1"
       points="170.431,262.463 231.231,280.063 231.231,390.463 201.631,390.463 "
       id="polygon37" /><polygon
       style="fill:#005376;fill-opacity:1"
       points="353.631,262.463 295.231,280.063 295.231,390.463 320.031,390.463 "
       id="polygon39" /><path
       style="fill:#005376;fill-opacity:1"
       d="m 228.831,55.263 c 13.6,48.8 -28.8,133.6 -60,142.4 -31.2,8.8 -68,-23.2 -81.6,-72 -13.6,-48.8 0,-96 31.2,-104.8 31.2,-9.6 96.8,-14.4 110.4,34.4 z"
       id="path41"
       inkscape:connector-curvature="0" /></g><path
     style="fill:#008b8b;fill-opacity:1"
     d="m 376.031,204.063 c -20,124.8 -64.8,104 -144.8,104 -80,0 -144.8,-25.6 -144.8,-104 0,-78.4 64.8,-142.4 144.8,-142.4 80,0 156.8,64.8 144.8,142.4 z"
     id="path43"
     inkscape:connector-curvature="0" /><g
     id="g47"
     style="fill:#008b8b;fill-opacity:1"
     transform="translate(-48,12)"><ellipse
       style="fill:#008b8b;fill-opacity:1"
       cx="156.03101"
       cy="160.86301"
       rx="76.800003"
       ry="96.800003"
       id="ellipse49" /><path
       style="fill:#008b8b;fill-opacity:1"
       d="m 88.031,192.863 59.2,3.2 c 0,4.8 0.8,9.6 0,14.4 -3.2,52.8 -44,93.6 -95.2,99.2 l -0.8,-11.2 c 30.4,-24.8 45.6,-65.6 36.8,-105.6 z"
       id="path51"
       inkscape:connector-curvature="0" /></g><path
     style="fill:#c5142c;fill-opacity:1"
     d="m 356.831,125.663 c -26.4,-38.4 -76,-64 -125.6,-64 -18.4,0 -35.2,3.2 -51.2,9.6 l -39.2,39.2 115.2,116 100.8,-100.8 z"
     id="path59"
     inkscape:connector-curvature="0" /><path
     style="fill:#008b8b;fill-opacity:1"
     d="m 370.431,229.663 -40,2.4 c 0,3.2 0,6.4 0,9.6 2.4,36 29.6,64 64,68 l 0.8,-7.2 c -20.8,-17.6 -31.2,-45.6 -24.8,-72.8 z"
     id="path67"
     inkscape:connector-curvature="0" /><path
     style="fill:#008b8b;fill-opacity:1"
     d="m 213.631,58.463 c 9.6,49.6 -40,130.4 -72,136.8 -32,6.4 -65.6,-28.8 -75.2,-79.2 -9.6,-49.6 8,-95.2 40,-101.6 32,-5.6 97.6,-5.6 107.2,44 z"
     id="path69"
     inkscape:connector-curvature="0" /><circle
     style="fill:#000000;fill-opacity:1"
     cx="63.231003"
     cy="197.66299"
     r="8"
     id="circle71" /><polygon
     style="fill:#000000;fill-opacity:1"
     points="135.231,305.663 156.831,251.263 132.831,247.263 "
     id="polygon73"
     transform="translate(-48,12)" /><g
     id="g77"
     style="fill:#008b8b;fill-opacity:1"
     transform="translate(-48,12)"><polygon
       style="fill:#008b8b;fill-opacity:1"
       points="209.631,262.463 271.231,280.063 271.231,390.463 240.031,390.463 "
       id="polygon79" /><polygon
       style="fill:#008b8b;fill-opacity:1"
       points="394.431,262.463 335.231,280.063 335.231,390.463 360.831,390.463 "
       id="polygon81" /></g><g
     id="g91"
     transform="translate(-48,12)" /><g
     id="g93"
     transform="translate(-48,12)" /><g
     id="g95"
     transform="translate(-48,12)" /><g
     id="g97"
     transform="translate(-48,12)" /><g
     id="g99"
     transform="translate(-48,12)" /><g
     id="g101"
     transform="translate(-48,12)" /><g
     id="g103"
     transform="translate(-48,12)" /><g
     id="g105"
     transform="translate(-48,12)" /><g
     id="g107"
     transform="translate(-48,12)" /><g
     id="g109"
     transform="translate(-48,12)" /><g
     id="g111"
     transform="translate(-48,12)" /><g
     id="g113"
     transform="translate(-48,12)" /><g
     id="g115"
     transform="translate(-48,12)" /><g
     id="g117"
     transform="translate(-48,12)" /><g
     id="g119"
     transform="translate(-48,12)" /></svg>