<?xml version="1.0" encoding="UTF-8" standalone="no"?>
<!-- Generator: Adobe Illustrator 19.0.0, SVG Export Plug-In . SVG Version: 6.00 Build 0)  -->

<svg
   xmlns:dc="http://purl.org/dc/elements/1.1/"
   xmlns:cc="http://creativecommons.org/ns#"
   xmlns:rdf="http://www.w3.org/1999/02/22-rdf-syntax-ns#"
   xmlns:svg="http://www.w3.org/2000/svg"
   xmlns="http://www.w3.org/2000/svg"
   xmlns:sodipodi="http://sodipodi.sourceforge.net/DTD/sodipodi-0.dtd"
   xmlns:inkscape="http://www.inkscape.org/namespaces/inkscape"
   version="1.1"
   id="Capa_1"
   x="0px"
   y="0px"
   viewBox="0 0 420.542 420.542"
   style="enable-background:new 0 0 420.542 420.542;"
   xml:space="preserve"
   inkscape:version="0.91 r13725"
   sodipodi:docname="flamingo.svg"><metadata
     id="metadata71"><rdf:RDF><cc:Work
         rdf:about=""><dc:format>image/svg+xml</dc:format><dc:type
           rdf:resource="http://purl.org/dc/dcmitype/StillImage" /></cc:Work></rdf:RDF></metadata><defs
     id="defs69" /><sodipodi:namedview
     pagecolor="#ffffff"
     bordercolor="#666666"
     borderopacity="1"
     objecttolerance="10"
     gridtolerance="10"
     guidetolerance="10"
     inkscape:pageopacity="0"
     inkscape:pageshadow="2"
     inkscape:window-width="1366"
     inkscape:window-height="744"
     id="namedview67"
     showgrid="false"
     inkscape:zoom="1.5872584"
     inkscape:cx="255.87261"
     inkscape:cy="372.15201"
     inkscape:window-x="0"
     inkscape:window-y="24"
     inkscape:window-maximized="1"
     inkscape:current-layer="Capa_1" /><g
     id="g5"><path
       inkscape:connector-curvature="0"
       id="path7"
       d="m 241.799,307.982 -117.009,0 c -3.127,0 -5.662,-2.535 -5.662,-5.662 l 0,-64.672 c 0,-3.127 2.535,-5.661 5.662,-5.662 l 0,0 c 3.127,0 5.662,2.535 5.662,5.662 l 0.001,53.348 c 0,3.127 2.535,5.662 5.662,5.662 l 105.684,-0.001 c 3.127,0 5.662,2.535 5.662,5.662 l 0,10e-4 c 0,3.126 -2.535,5.662 -5.662,5.662 z"
       style="fill:#db9f15" /><path
       inkscape:connector-curvature="0"
       id="path9"
       d="m 247.461,325.516 0,0 c -3.127,0 -5.662,-2.535 -5.662,-5.662 l 0,-35.068 c 0,-3.127 2.535,-5.661 5.662,-5.662 l 0,0 c 3.127,0 5.662,2.535 5.662,5.662 l 0,35.068 c 0,3.126 -2.535,5.661 -5.662,5.662 z"
       style="fill:#db9f15" /></g><path
     style="fill:#f79e00;fill-opacity:1"
     d="m 172.247,409.20985 0,0 c -3.127,0 -5.662,-2.44434 -5.662,-5.46047 l 0,-141.95388 c 0,-3.01516 2.535,-5.4595 5.662,-5.4595 l 0,0 c 3.127,0 5.662,2.44434 5.662,5.4595 l 0,141.95388 c 0,3.01613 -2.534,5.46047 -5.662,5.46047 z"
     id="path13"
     inkscape:connector-curvature="0" /><path
     inkscape:connector-curvature="0"
     id="path17"
     d="m 302.292,19.31 0,-0.271 -43.271,0 0,30.779 39.385,0 0,0.581 c 0,15.716 12.74,28.457 28.456,28.457 l 0,-31.36 c 10e-4,-14.398 -10.694,-26.29 -24.57,-28.186 z"
     style="fill:#f9e0a4" /><path
     inkscape:connector-curvature="0"
     id="path19"
     d="m 93.679,161.321 0,32.24 c 0,44.737 36.267,81.005 81.005,81.005 l 0,0 c 39.211,0 70.999,-31.787 70.999,-70.999 l 0,-42.246 -152.004,0 z"
     style="fill:#c5142c;fill-opacity:1" /><path
     style="fill:#c5393e;fill-opacity:1"
     d="m 109.913,180.314 c 0,33.009 26.759,59.768 59.768,59.768 33.008,0 59.768,-26.759 59.768,-59.768 l -119.536,0 z"
     id="path23"
     inkscape:connector-curvature="0" /><path
     style="fill:#9b142c;fill-opacity:1"
     d="m 127.009,180.314 c 0,28.288 22.932,51.221 51.22,51.221 28.288,0 51.221,-22.933 51.221,-51.221 l -102.441,0 z"
     id="path25"
     inkscape:connector-curvature="0" /><path
     inkscape:connector-curvature="0"
     id="path27"
     d="m 267.733,0 -26.667,0 c -12.027,0 -21.777,9.75 -21.777,21.778 l 0,139.543 26.396,0 0,-111.503 22.049,0 c 12.027,0 21.778,-9.75 21.778,-21.778 l 0,-6.262 C 289.511,9.75 279.76,0 267.733,0 Z"
     style="fill:#c5142c;fill-opacity:1" /><path
     inkscape:connector-curvature="0"
     id="path29"
     d="m 311.003,59.4 c -4.052,0 -7.962,-0.604 -11.651,-1.715 3.219,12.185 14.314,21.17 27.511,21.17 l 0,-22.694 c -4.87,2.083 -10.229,3.239 -15.86,3.239 z"
     style="fill:#000000;fill-opacity:1" /><circle
     style="fill:#ffffff"
     cx="260.35901"
     cy="25.021999"
     r="10.734"
     id="circle33" /><circle
     style="fill:#000000;fill-opacity:1"
     cx="260.35901"
     cy="25.021999"
     r="5.3670001"
     id="circle35" /><g
     id="g37" /><g
     id="g39" /><g
     id="g41" /><g
     id="g43" /><g
     id="g45" /><g
     id="g47" /><g
     id="g49" /><g
     id="g51" /><g
     id="g53" /><g
     id="g55" /><g
     id="g57" /><g
     id="g59" /><g
     id="g61" /><g
     id="g63" /><g
     id="g65" /></svg>