<?xml version="1.0" encoding="UTF-8" standalone="no"?>
<!-- Generator: Adobe Illustrator 19.0.0, SVG Export Plug-In . SVG Version: 6.00 Build 0)  -->

<svg
   xmlns:dc="http://purl.org/dc/elements/1.1/"
   xmlns:cc="http://creativecommons.org/ns#"
   xmlns:rdf="http://www.w3.org/1999/02/22-rdf-syntax-ns#"
   xmlns:svg="http://www.w3.org/2000/svg"
   xmlns="http://www.w3.org/2000/svg"
   xmlns:sodipodi="http://sodipodi.sourceforge.net/DTD/sodipodi-0.dtd"
   xmlns:inkscape="http://www.inkscape.org/namespaces/inkscape"
   version="1.1"
   id="Layer_1"
   x="0px"
   y="0px"
   viewBox="0 0 497.421 497.421"
   style="enable-background:new 0 0 497.421 497.421;"
   xml:space="preserve"
   inkscape:version="0.91 r13725"
   sodipodi:docname="magician.svg"><metadata
     id="metadata113"><rdf:RDF><cc:Work
         rdf:about=""><dc:format>image/svg+xml</dc:format><dc:type
           rdf:resource="http://purl.org/dc/dcmitype/StillImage" /><dc:title></dc:title></cc:Work></rdf:RDF></metadata><defs
     id="defs111" /><sodipodi:namedview
     pagecolor="#ffffff"
     bordercolor="#666666"
     borderopacity="1"
     objecttolerance="10"
     gridtolerance="10"
     guidetolerance="10"
     inkscape:pageopacity="0"
     inkscape:pageshadow="2"
     inkscape:window-width="1319"
     inkscape:window-height="744"
     id="namedview109"
     showgrid="false"
     inkscape:zoom="0.94889442"
     inkscape:cx="263.07718"
     inkscape:cy="311.09748"
     inkscape:window-x="47"
     inkscape:window-y="24"
     inkscape:window-maximized="1"
     inkscape:current-layer="Layer_1" /><g
     id="g3"
     style="fill:#a7142c;fill-opacity:1"><ellipse
       transform="matrix(-0.0362 -0.9993 0.9993 -0.0362 138.911 245.6371)"
       style="fill:#a7142c;fill-opacity:1"
       cx="187.91"
       cy="55.831"
       rx="50.398"
       ry="17.599"
       id="ellipse5" /><ellipse
       transform="matrix(-0.0362 0.9993 -0.9993 -0.0362 375.1549 -251.519)"
       style="fill:#a7142c;fill-opacity:1"
       cx="308.869"
       cy="55.153"
       rx="50.398"
       ry="17.599"
       id="ellipse7" /></g><ellipse
     style="fill:#92142c;fill-opacity:1"
     cx="248.71"
     cy="264.621"
     rx="116.8"
     ry="140"
     id="ellipse9" /><path
     style="fill:#b0142c;fill-opacity:1"
     d="M248.71,124.621c64.8,0,116.8,62.4,116.8,140s-52.8,140-116.8,140"
     id="path11" /><polygon
     style="fill:#008b8b;fill-opacity:1"
     points="413.51,497.421 83.91,497.421 123.91,281.421 373.51,281.421 "
     id="polygon13" /><polyline
     style="fill:#005376;fill-opacity:1"
     points="120.71,281.421 373.51,281.421 413.51,497.421 "
     id="polyline15" /><rect
     x="56.71"
     y="249.421"
     style="fill:#005376;fill-opacity:1"
     width="384"
     height="40"
     id="rect17" /><polyline
     style="fill:#008b8b;fill-opacity:1"
     points="440.71,249.421 440.71,289.421 56.71,289.421 "
     id="polyline19" /><polygon
     style="fill:#e29524;opacity:0.95;fill-opacity:1"
     points="98.31,425.421 399.91,425.421 384.71,345.421 112.71,345.421 "
     id="polygon21" /><polyline
     style="fill:#e29524;fill-opacity:1"
     points="399.91,425.421 384.71,345.421 112.71,345.421 "
     id="polyline23" /><path
     style="fill:#c5142c;fill-opacity:1"
     d="M320.71,119.021c0,55.2-32,100.8-72,100.8s-72-44.8-72-100.8c0-55.2,32-64.8,72-64.8  S320.71,63.021,320.71,119.021z"
     id="path25" /><path
     style="fill:#c5142c;fill-opacity:1"
     d="M172.71,3.021c36-10.4,26.4,8,31.2,25.6s22.4,28-13.6,37.6c-36,10.4-112.8,16-117.6-0.8  C67.11,47.821,135.91,13.421,172.71,3.021z"
     id="path29" /><path
     style="fill:#c5142c;fill-opacity:1"
     d="M324.71,3.021c-36-10.4-26.4,8-31.2,25.6c-4.8,17.6-22.4,28,13.6,37.6c36,10.4,112.8,16,117.6-0.8  C430.31,47.821,361.51,13.421,324.71,3.021z"
     id="path33" /><g
     id="g37"><path
       style="fill:#032B27;"
       d="M216.71,131.821c-1.6,0-2.4,0-4,0.8c0.8,1.6,1.6,3.2,1.6,4.8c0,4.8-4,8.8-8.8,8.8l0,0   c1.6,4.8,5.6,8,10.4,8c6.4,0,11.2-4.8,11.2-11.2S223.11,131.821,216.71,131.821z"
       id="path39" /><path
       style="fill:#032B27;"
       d="M279.91,131.821c-1.6,0-2.4,0-4,0.8c0.8,1.6,1.6,3.2,1.6,4.8c0,4.8-4,8.8-8.8,8.8l0,0   c1.6,4.8,5.6,8,10.4,8c6.4,0,11.2-4.8,11.2-11.2S286.31,131.821,279.91,131.821z"
       id="path41" /></g><g
     id="g43"><path
       style="fill:#1D4F49;"
       d="M227.91,143.021c0-6.4-4.8-11.2-11.2-11.2c-1.6,0-2.4,0-4,0.8c0.8,1.6,1.6,3.2,1.6,4.8   c0,4.8-4,8.8-8.8,8.8"
       id="path45" /><path
       style="fill:#1D4F49;"
       d="M291.11,143.021c0-6.4-4.8-11.2-11.2-11.2c-1.6,0-2.4,0-4,0.8c0.8,1.6,1.6,3.2,1.6,4.8   c0,4.8-4,8.8-8.8,8.8l0,0"
       id="path47" /></g><path
     style="fill:#92142c;fill-opacity:1"
     d="M271.91,193.421c0,12-10.4,21.6-23.2,21.6c-12.8,0-23.2-9.6-23.2-21.6s10.4-13.6,23.2-13.6  S271.91,181.421,271.91,193.421z"
     id="path49" /><path
     style="fill:#a7142c;fill-opacity:1"
     d="M248.71,179.821c12.8,0,23.2,2.4,23.2,13.6c0,12-10.4,21.6-23.2,21.6"
     id="path51" /><path
     style="fill:#c5142c;fill-opacity:1"
     d="M176.71,266.221c0,15.2-12.8,27.2-28,27.2l0,0c-15.2,0-28-12-28-27.2v-45.6c0-15.2,12.8-27.2,28-27.2  l0,0c15.2,0,28,12,28,27.2V266.221z"
     id="path63" /><path
     style="fill:#c5142c;fill-opacity:1"
     d="M376.71,266.221c0,15.2-12.8,27.2-28,27.2l0,0c-15.2,0-28-12-28-27.2v-45.6c0-15.2,12.8-27.2,28-27.2  l0,0c15.2,0,28,12,28,27.2V266.221z"
     id="path67" /><g
     id="g79" /><g
     id="g81" /><g
     id="g83" /><g
     id="g85" /><g
     id="g87" /><g
     id="g89" /><g
     id="g91" /><g
     id="g93" /><g
     id="g95" /><g
     id="g97" /><g
     id="g99" /><g
     id="g101" /><g
     id="g103" /><g
     id="g105" /><g
     id="g107" /></svg>