<?xml version="1.0" encoding="UTF-8" standalone="no"?>
<!-- Generator: Adobe Illustrator 19.0.0, SVG Export Plug-In . SVG Version: 6.00 Build 0)  -->

<svg
   xmlns:dc="http://purl.org/dc/elements/1.1/"
   xmlns:cc="http://creativecommons.org/ns#"
   xmlns:rdf="http://www.w3.org/1999/02/22-rdf-syntax-ns#"
   xmlns:svg="http://www.w3.org/2000/svg"
   xmlns="http://www.w3.org/2000/svg"
   xmlns:sodipodi="http://sodipodi.sourceforge.net/DTD/sodipodi-0.dtd"
   xmlns:inkscape="http://www.inkscape.org/namespaces/inkscape"
   version="1.1"
   id="Layer_1"
   x="0px"
   y="0px"
   viewBox="0 0 502.051 502.051"
   style="enable-background:new 0 0 502.051 502.051;"
   xml:space="preserve"
   inkscape:version="0.91 r13725"
   sodipodi:docname="seal.svg"><metadata
     id="metadata113"><rdf:RDF><cc:Work
         rdf:about=""><dc:format>image/svg+xml</dc:format><dc:type
           rdf:resource="http://purl.org/dc/dcmitype/StillImage" /></cc:Work></rdf:RDF></metadata><defs
     id="defs111" /><sodipodi:namedview
     pagecolor="#ffffff"
     bordercolor="#666666"
     borderopacity="1"
     objecttolerance="10"
     gridtolerance="10"
     guidetolerance="10"
     inkscape:pageopacity="0"
     inkscape:pageshadow="2"
     inkscape:window-width="1366"
     inkscape:window-height="744"
     id="namedview109"
     showgrid="false"
     inkscape:zoom="1.3295637"
     inkscape:cx="248.90104"
     inkscape:cy="187.92562"
     inkscape:window-x="0"
     inkscape:window-y="24"
     inkscape:window-maximized="1"
     inkscape:current-layer="Layer_1" /><path
     style="fill:#c5142c;fill-opacity:1"
     d="M439.642,442.64L439.642,442.64L439.642,442.64c32.8-17.6,62.4-36,62.4-68c0.8-55.2-52-67.2-68-114.4  v-1.6l0,0v1.6L439.642,442.64z"
     id="path3" /><path
     style="fill:#008b8b;fill-opacity:1"
     d="M451.642,440.24L451.642,440.24L451.642,440.24c3.2-38.4,2.4-71.2-24-88.8  c-46.4-30.4-82.4,5.6-133.6-1.6l0,0v0.8l0,0L451.642,440.24z"
     id="path5" /><path
     style="fill:#c5142c;fill-opacity:1"
     d="M201.242,224.24c16,13.6,47.2-1.6-29.6,92.8s-152,160-168,146.4s20.8-108.8,108.8-194.4  C199.642,184.24,185.242,211.44,201.242,224.24z"
     id="path7" /><g
     id="g9"
     style="fill:#008b8b;fill-opacity:1"><path
       style="fill:#008b8b;fill-opacity:1"
       d="M209.242,205.04c-20,23.2-59.2,22.4-87.2-1.6s-44-76.8-14.4-86.4c-14.4,4.8,65.6-17.6,93.6,6.4   C229.242,148.24,229.242,181.84,209.242,205.04z"
       id="path11" /><path
       style="fill:#008b8b;fill-opacity:1"
       d="M251.642,321.84c-26.4-45.6-35.2-104.8-28.8-149.6c-112.8-20-92-36.8-131.2,108   c-23.2,84-15.2,182.4,89.6,208.8c90.4,22.4,264-11.2,300.8-75.2C406.842,453.04,304.442,412.24,251.642,321.84z"
       id="path13" /></g><path
     style="fill:#000000;fill-opacity:1"
     d="M114.842,121.04c0,8-6.4,15.2-13.6,15.2s-13.6-6.4-13.6-15.2c0-8,6.4-4,13.6-4  C108.442,117.84,114.842,113.04,114.842,121.04z"
     id="path15" /><path
     style="fill:#c5142c;fill-opacity:1"
     d="M285.242,495.44l-144-144l-53.6,53.6c12,39.2,40,71.2,93.6,84.8  C210.042,497.04,246.842,498.64,285.242,495.44z"
     id="path17" /><path
     style="fill:#008b8b;fill-opacity:1"
     d="M146.842,327.44c20.8,10.4,49.6-5.6,16,62.4s-77.6,114.4-98.4,104s-10.4-73.6,23.2-141.6  S126.042,317.04,146.842,327.44z"
     id="path19" /><circle
     style="fill:#000000;fill-opacity:1"
     cx="162.842"
     cy="137.04"
     r="8"
     id="circle55" /><circle
     style="fill:#fff000;fill-opacity:0"
     cx="161.242"
     cy="134.64"
     r="4.8"
     id="circle57" /><polygon
     style="fill:#E29524;"
     points="226.042,226.64 100.442,226.64 108.442,202.64 222.842,202.64 "
     id="polygon75" /><polyline
     style="fill:#E07127;"
     points="114.042,202.64 222.842,202.64 226.042,226.64 "
     id="polyline77" /><g
     id="g79" /><g
     id="g81" /><g
     id="g83" /><g
     id="g85" /><g
     id="g87" /><g
     id="g89" /><g
     id="g91" /><g
     id="g93" /><g
     id="g95" /><g
     id="g97" /><g
     id="g99" /><g
     id="g101" /><g
     id="g103" /><g
     id="g105" /><g
     id="g107" /></svg>